<svg width="32" height="32" viewBox="0 0 32 32" fill="none" xmlns="http://www.w3.org/2000/svg">
<path d="M5.3335 9.3335V8.00016C5.3335 7.29292 5.61445 6.61464 6.11454 6.11454C6.61464 5.61445 7.29292 5.3335 8.00016 5.3335H10.6668M5.3335 22.6668V24.0002C5.3335 24.7074 5.61445 25.3857 6.11454 25.8858C6.61464 26.3859 7.29292 26.6668 8.00016 26.6668H10.6668M21.3335 5.3335H24.0002C24.7074 5.3335 25.3857 5.61445 25.8858 6.11454C26.3859 6.61464 26.6668 7.29292 26.6668 8.00016V9.3335M21.3335 26.6668H24.0002C24.7074 26.6668 25.3857 26.3859 25.8858 25.8858C26.3859 25.3857 26.6668 24.7074 26.6668 24.0002V22.6668" stroke="black" stroke-width="2.66667" stroke-linecap="round" stroke-linejoin="round"/>
<path d="M23.2519 18.9626V13.0374C23.2519 12.2942 22.8596 11.6129 22.2196 11.2516L17.0583 8.27871C16.7383 8.0929 16.3874 8 16.0261 8C15.6648 8 15.3138 8.0929 14.9938 8.27871L9.83255 11.2413C9.19255 11.6129 8.80029 12.2942 8.80029 13.0374V18.9626C8.80029 19.7058 9.19255 20.3871 9.83255 20.7484L14.9938 23.7213C15.3138 23.9071 15.6648 24 16.0261 24C16.3874 24 16.7383 23.9071 17.0583 23.7213L22.2196 20.7484C22.8596 20.3871 23.2519 19.7058 23.2519 18.9626ZM14.9938 21.3368L10.8648 18.9626V14.1832L14.9938 16.5884V21.3368ZM16.0261 14.8026L11.9383 12.4181L16.0261 10.0645L20.1138 12.4181L16.0261 14.8026ZM21.1874 18.9626L17.0583 21.3368V16.5884L21.1874 14.1832V18.9626Z" fill="black"/>
</svg>
