<svg width="32" height="32" viewBox="0 0 32 32" fill="none" xmlns="http://www.w3.org/2000/svg">
<path d="M5.3335 9.3335V8.00016C5.3335 7.29292 5.61445 6.61464 6.11454 6.11454C6.61464 5.61445 7.29292 5.3335 8.00016 5.3335H10.6668M5.3335 22.6668V24.0002C5.3335 24.7074 5.61445 25.3857 6.11454 25.8858C6.61464 26.3859 7.29292 26.6668 8.00016 26.6668H10.6668M21.3335 5.3335H24.0002C24.7074 5.3335 25.3857 5.61445 25.8858 6.11454C26.3859 6.61464 26.6668 7.29292 26.6668 8.00016V9.3335M21.3335 26.6668H24.0002C24.7074 26.6668 25.3857 26.3859 25.8858 25.8858C26.3859 25.3857 26.6668 24.7074 26.6668 24.0002V22.6668" stroke="black" stroke-width="2.66667" stroke-linecap="round" stroke-linejoin="round"/>
<path d="M13.8735 15.1034C13.8735 15.6773 14.1015 16.2277 14.5073 16.6335C14.9132 17.0394 15.4636 17.2673 16.0375 17.2673C16.6114 17.2673 17.1618 17.0394 17.5676 16.6335C17.9734 16.2277 18.2014 15.6773 18.2014 15.1034C18.2014 14.5295 17.9734 13.9791 17.5676 13.5733C17.1618 13.1674 16.6114 12.9395 16.0375 12.9395C15.4636 12.9395 14.9132 13.1674 14.5073 13.5733C14.1015 13.9791 13.8735 14.5295 13.8735 15.1034Z" stroke="black" stroke-width="1.6" stroke-linecap="round" stroke-linejoin="round"/>
<path d="M20.1181 19.1843L17.0576 22.2448C16.7871 22.515 16.4203 22.6668 16.038 22.6668C15.6556 22.6668 15.2889 22.515 15.0184 22.2448L11.9571 19.1843C11.1501 18.3772 10.6006 17.349 10.3779 16.2297C10.1553 15.1103 10.2696 13.9501 10.7064 12.8957C11.1431 11.8413 11.8828 10.94 12.8317 10.306C13.7807 9.67192 14.8963 9.3335 16.0376 9.3335C17.1789 9.3335 18.2946 9.67192 19.2435 10.306C20.1925 10.94 20.9321 11.8413 21.3689 12.8957C21.8056 13.9501 21.9199 15.1103 21.6973 16.2297C21.4746 17.349 20.9251 18.3772 20.1181 19.1843Z" stroke="black" stroke-width="1.6" stroke-linecap="round" stroke-linejoin="round"/>
</svg>
