<svg width="16" height="16" viewBox="0 0 16 16" fill="none" xmlns="http://www.w3.org/2000/svg">
<path fill-rule="evenodd" clip-rule="evenodd" d="M4.66634 6.00016C4.66634 4.15921 6.15873 2.66683 7.99967 2.66683C9.84062 2.66683 11.333 4.15921 11.333 6.00016C11.333 7.09056 10.8094 8.05868 10 8.66683H9.99967V8.66707C9.44257 9.08553 8.75008 9.3335 7.99967 9.3335C7.24927 9.3335 6.55678 9.08553 5.99967 8.66707V8.66683H5.99935C5.1899 8.05868 4.66634 7.09056 4.66634 6.00016ZM4.66634 9.26615C3.84155 8.42446 3.33301 7.2717 3.33301 6.00016C3.33301 3.42283 5.42235 1.3335 7.99967 1.3335C10.577 1.3335 12.6663 3.42283 12.6663 6.00016C12.6663 7.2717 12.1578 8.42446 11.333 9.26615V12.9215C11.333 13.9127 10.2899 14.5573 9.40339 14.114L7.99967 13.4122L6.59596 14.114C5.70942 14.5573 4.66634 13.9126 4.66634 12.9215V9.26615ZM5.99967 10.2177V12.9215L7.40339 12.2196C7.77876 12.0319 8.22059 12.0319 8.59596 12.2196L9.99967 12.9215V10.2177C9.3935 10.5057 8.71541 10.6668 7.99967 10.6668C7.28394 10.6668 6.60584 10.5057 5.99967 10.2177Z" fill="#757575"/>
</svg>
