<svg xmlns="http://www.w3.org/2000/svg" width="24" height="24" viewBox="0 0 24 24" fill="none">
  <path fill-rule="evenodd" clip-rule="evenodd" d="M9.37135 4.07179C9.88413 4.2769 10.1335 4.85887 9.92843 5.37166L8.47699 9.00027H15.5229L14.0715 5.37166C13.8664 4.85887 14.1158 4.2769 14.6286 4.07179C15.1413 3.86668 15.7233 4.11609 15.9284 4.62888L17.677 9.00027H17.7654C19.5535 9.00027 20.9445 10.5545 20.7471 12.3316L20.1915 17.3316C20.0227 18.8509 18.7385 20.0003 17.2099 20.0003H6.79004C5.2614 20.0003 3.9772 18.8509 3.80839 17.3316L3.25284 12.3316C3.05538 10.5545 4.44645 9.00027 6.23449 9.00027H6.32292L8.07148 4.62888C8.27659 4.11609 8.85856 3.86668 9.37135 4.07179ZM16.9773 11.0003C16.9926 11.0006 17.0079 11.0006 17.0233 11.0003H17.7654C18.3614 11.0003 18.8251 11.5183 18.7593 12.1107L18.2038 17.1107C18.1475 17.6171 17.7194 18.0003 17.2099 18.0003H6.79004C6.28049 18.0003 5.85243 17.6171 5.79616 17.1107L5.2406 12.1107C5.17478 11.5183 5.63847 11.0003 6.23449 11.0003H6.97666C6.99202 11.0006 7.00735 11.0006 7.02264 11.0003H16.9773Z" fill="black"/>
</svg>