<svg xmlns="http://www.w3.org/2000/svg" width="24" height="24" viewBox="0 0 24 24" fill="none">
  <path fill-rule="evenodd" clip-rule="evenodd" d="M10.0704 3C9.06731 3 8.13061 3.5013 7.57422 4.3359L6.76168 5.5547C6.57622 5.8329 6.26399 6 5.92963 6H4C2.34315 6 1 7.34315 1 9V18C1 19.6569 2.34315 21 4 21H20C21.6569 21 23 19.6569 23 18V9C23 7.34315 21.6569 6 20 6H18.0704C17.736 6 17.4238 5.8329 17.2383 5.5547L16.4258 4.3359C15.8694 3.5013 14.9327 3 13.9296 3H10.0704ZM9.23832 5.4453C9.42378 5.1671 9.73601 5 10.0704 5H13.9296C14.264 5 14.5762 5.1671 14.7617 5.4453L15.5742 6.6641C16.1306 7.4987 17.0673 8 18.0704 8H20C20.5523 8 21 8.44772 21 9V18C21 18.5523 20.5523 19 20 19H4C3.44772 19 3 18.5523 3 18V9C3 8.44772 3.44772 8 4 8H5.92963C6.93269 8 7.86939 7.4987 8.42578 6.6641L9.23832 5.4453ZM10 13C10 11.8954 10.8954 11 12 11C13.1046 11 14 11.8954 14 13C14 14.1046 13.1046 15 12 15C10.8954 15 10 14.1046 10 13ZM12 9C9.79086 9 8 10.7909 8 13C8 15.2091 9.79086 17 12 17C14.2091 17 16 15.2091 16 13C16 10.7909 14.2091 9 12 9Z" fill="black"/>
</svg>