<svg width="25" height="24" viewBox="0 0 25 24" fill="none" xmlns="http://www.w3.org/2000/svg">
<path d="M2.83676 2.28822C2.74295 2.25559 2.64359 2.24191 2.54444 2.24799C2.4453 2.25406 2.34836 2.27977 2.25923 2.32362C2.17011 2.36747 2.09058 2.42859 2.02527 2.50343C1.95996 2.57826 1.91016 2.66532 1.87877 2.75956C1.84738 2.8538 1.83502 2.95333 1.84241 3.05238C1.8498 3.15144 1.87679 3.24803 1.92182 3.33657C1.96685 3.42511 2.02901 3.50382 2.10471 3.56813C2.1804 3.63245 2.26812 3.68108 2.36276 3.71122L2.62776 3.80022C3.30376 4.02522 3.75176 4.17622 4.08076 4.32922C4.39276 4.47422 4.52776 4.59122 4.61376 4.71122C4.70076 4.83122 4.76876 4.99522 4.80776 5.33722C4.84876 5.69822 4.84976 6.17022 4.84976 6.88322V9.55522C4.84976 10.9222 4.84976 12.0252 4.96676 12.8922C5.08676 13.7922 5.34676 14.5502 5.94876 15.1522C6.54976 15.7542 7.30876 16.0122 8.20876 16.1332C9.07476 16.2502 10.1778 16.2502 11.5448 16.2502H18.5998C18.7987 16.2502 18.9894 16.1712 19.1301 16.0306C19.2707 15.8899 19.3498 15.6991 19.3498 15.5002C19.3498 15.3013 19.2707 15.1105 19.1301 14.9699C18.9894 14.8292 18.7987 14.7502 18.5998 14.7502H11.5998C10.1648 14.7502 9.16376 14.7482 8.40776 14.6472C7.67476 14.5482 7.28576 14.3672 7.00876 14.0912C6.77376 13.8562 6.60876 13.5402 6.50276 13.0002H16.6228C17.5818 13.0002 18.0608 13.0002 18.4368 12.7522C18.8128 12.5042 19.0018 12.0642 19.3798 11.1822L19.8078 10.1822C20.6178 8.29222 21.0228 7.34822 20.5778 6.67422C20.1328 6.00022 19.1058 6.00022 17.0498 6.00022H6.34476C6.34198 5.72198 6.3263 5.44401 6.29776 5.16722C6.24276 4.68222 6.12176 4.23722 5.83076 3.83422C5.53976 3.43022 5.15576 3.17422 4.71376 2.96922C4.29676 2.77522 3.76776 2.59922 3.14176 2.38922L2.83676 2.28822ZM8.09976 18.0002C8.49758 18.0002 8.87912 18.1583 9.16042 18.4396C9.44172 18.7209 9.59976 19.1024 9.59976 19.5002C9.59976 19.898 9.44172 20.2796 9.16042 20.5609C8.87912 20.8422 8.49758 21.0002 8.09976 21.0002C7.70194 21.0002 7.3204 20.8422 7.0391 20.5609C6.7578 20.2796 6.59976 19.898 6.59976 19.5002C6.59976 19.1024 6.7578 18.7209 7.0391 18.4396C7.3204 18.1583 7.70194 18.0002 8.09976 18.0002ZM17.0998 18.0002C17.4976 18.0002 17.8791 18.1583 18.1604 18.4396C18.4417 18.7209 18.5998 19.1024 18.5998 19.5002C18.5998 19.898 18.4417 20.2796 18.1604 20.5609C17.8791 20.8422 17.4976 21.0002 17.0998 21.0002C16.7019 21.0002 16.3204 20.8422 16.0391 20.5609C15.7578 20.2796 15.5998 19.898 15.5998 19.5002C15.5998 19.1024 15.7578 18.7209 16.0391 18.4396C16.3204 18.1583 16.7019 18.0002 17.0998 18.0002Z" fill="#AFAFAF"/>
</svg>
