<svg width="25" height="24" viewBox="0 0 25 24" fill="none" xmlns="http://www.w3.org/2000/svg">
<mask id="path-1-inside-1_2902_11529" fill="white">
<path fill-rule="evenodd" clip-rule="evenodd" d="M13.3286 3C12.533 3 11.7699 3.31607 11.2073 3.87868L3.20729 11.8787C2.03572 13.0503 2.03572 14.9497 3.20729 16.1213L8.37887 21.2929C9.55044 22.4645 11.4499 22.4645 12.6215 21.2929L20.6215 13.2929C21.1841 12.7303 21.5002 11.9672 21.5002 11.1716V6C21.5002 4.34315 20.157 3 18.5002 3H13.3286ZM12.6215 5.29289C12.809 5.10536 13.0634 5 13.3286 5H18.5002C19.0525 5 19.5002 5.44772 19.5002 6V11.1716C19.5002 11.4368 19.3948 11.6911 19.2073 11.8787L11.2073 19.8787C10.8168 20.2692 10.1836 20.2692 9.79308 19.8787L4.62151 14.7071C4.23098 14.3166 4.23098 13.6834 4.62151 13.2929L12.6215 5.29289ZM14.5002 12C15.6048 12 16.5002 11.1046 16.5002 10C16.5002 8.89543 15.6048 8 14.5002 8C13.3956 8 12.5002 8.89543 12.5002 10C12.5002 11.1046 13.3956 12 14.5002 12Z"/>
</mask>
<path fill-rule="evenodd" clip-rule="evenodd" d="M13.3286 3C12.533 3 11.7699 3.31607 11.2073 3.87868L3.20729 11.8787C2.03572 13.0503 2.03572 14.9497 3.20729 16.1213L8.37887 21.2929C9.55044 22.4645 11.4499 22.4645 12.6215 21.2929L20.6215 13.2929C21.1841 12.7303 21.5002 11.9672 21.5002 11.1716V6C21.5002 4.34315 20.157 3 18.5002 3H13.3286ZM12.6215 5.29289C12.809 5.10536 13.0634 5 13.3286 5H18.5002C19.0525 5 19.5002 5.44772 19.5002 6V11.1716C19.5002 11.4368 19.3948 11.6911 19.2073 11.8787L11.2073 19.8787C10.8168 20.2692 10.1836 20.2692 9.79308 19.8787L4.62151 14.7071C4.23098 14.3166 4.23098 13.6834 4.62151 13.2929L12.6215 5.29289ZM14.5002 12C15.6048 12 16.5002 11.1046 16.5002 10C16.5002 8.89543 15.6048 8 14.5002 8C13.3956 8 12.5002 8.89543 12.5002 10C12.5002 11.1046 13.3956 12 14.5002 12Z" fill="white"/>
<path d="M11.2073 3.87868L11.9144 4.58579L11.9144 4.58579L11.2073 3.87868ZM3.20729 11.8787L2.50019 11.1716H2.50019L3.20729 11.8787ZM3.20729 16.1213L2.50019 16.8284H2.50019L3.20729 16.1213ZM8.37887 21.2929L9.08597 20.5858L8.37887 21.2929ZM12.6215 21.2929L11.9144 20.5858L12.6215 21.2929ZM20.6215 13.2929L21.3286 14L20.6215 13.2929ZM12.6215 5.29289L11.9144 4.58579L12.6215 5.29289ZM9.79308 19.8787L10.5002 19.1716V19.1716L9.79308 19.8787ZM4.62151 14.7071L3.9144 15.4142H3.9144L4.62151 14.7071ZM4.62151 13.2929L5.32861 14L5.32861 14L4.62151 13.2929ZM11.9144 4.58579C12.2895 4.21071 12.7982 4 13.3286 4V2C12.2677 2 11.2503 2.42143 10.5002 3.17157L11.9144 4.58579ZM3.9144 12.5858L11.9144 4.58579L10.5002 3.17157L2.50019 11.1716L3.9144 12.5858ZM3.9144 15.4142C3.13335 14.6332 3.13335 13.3668 3.9144 12.5858L2.50019 11.1716C0.938092 12.7337 0.938086 15.2663 2.50019 16.8284L3.9144 15.4142ZM9.08597 20.5858L3.9144 15.4142L2.50019 16.8284L7.67176 22L9.08597 20.5858ZM11.9144 20.5858C11.1334 21.3668 9.86702 21.3668 9.08597 20.5858L7.67176 22C9.23385 23.5621 11.7665 23.5621 13.3286 22L11.9144 20.5858ZM19.9144 12.5858L11.9144 20.5858L13.3286 22L21.3286 14L19.9144 12.5858ZM20.5002 11.1716C20.5002 11.702 20.2895 12.2107 19.9144 12.5858L21.3286 14C22.0788 13.2499 22.5002 12.2324 22.5002 11.1716H20.5002ZM20.5002 6V11.1716H22.5002V6H20.5002ZM18.5002 4C19.6048 4 20.5002 4.89543 20.5002 6H22.5002C22.5002 3.79086 20.7093 2 18.5002 2V4ZM13.3286 4H18.5002V2H13.3286V4ZM13.3286 4C12.7982 4 12.2895 4.21071 11.9144 4.58579L13.3286 6V6V4ZM18.5002 4H13.3286V6H18.5002V4ZM20.5002 6C20.5002 4.89543 19.6048 4 18.5002 4V6H20.5002ZM20.5002 11.1716V6H18.5002V11.1716H20.5002ZM19.9144 12.5858C20.2895 12.2107 20.5002 11.702 20.5002 11.1716H18.5002L19.9144 12.5858ZM11.9144 20.5858L19.9144 12.5858L18.5002 11.1716L10.5002 19.1716L11.9144 20.5858ZM9.08597 20.5858C9.86702 21.3668 11.1334 21.3668 11.9144 20.5858L10.5002 19.1716H10.5002L9.08597 20.5858ZM3.9144 15.4142L9.08597 20.5858L10.5002 19.1716L5.32861 14L3.9144 15.4142ZM3.9144 12.5858C3.13335 13.3668 3.13335 14.6332 3.9144 15.4142L5.32861 14L5.32861 14L3.9144 12.5858ZM11.9144 4.58579L3.9144 12.5858L5.32861 14L13.3286 6L11.9144 4.58579ZM15.5002 10C15.5002 10.5523 15.0525 11 14.5002 11V13C16.157 13 17.5002 11.6569 17.5002 10H15.5002ZM14.5002 9C15.0525 9 15.5002 9.44772 15.5002 10H17.5002C17.5002 8.34315 16.157 7 14.5002 7V9ZM13.5002 10C13.5002 9.44772 13.9479 9 14.5002 9V7C12.8433 7 11.5002 8.34315 11.5002 10H13.5002ZM14.5002 11C13.9479 11 13.5002 10.5523 13.5002 10H11.5002C11.5002 11.6569 12.8433 13 14.5002 13V11Z" fill="white" mask="url(#path-1-inside-1_2902_11529)"/>
</svg>
