<svg xmlns="http://www.w3.org/2000/svg" width="24" height="24" viewBox="0 0 24 24" fill="none">
<path d="M9.707 4.793C9.414 4.5 8.943 4.5 8 4.5H7.75V3C7.75 2.80109 7.67098 2.61032 7.53033 2.46967C7.38968 2.32902 7.19891 2.25 7 2.25C6.80109 2.25 6.61032 2.32902 6.46967 2.46967C6.32902 2.61032 6.25 2.80109 6.25 3V4.5H6C5.057 4.5 4.586 4.5 4.293 4.793C4 5.086 4 5.557 4 6.5V6.704C4.202 6.651 4.406 6.614 4.606 6.587C5.25 6.5 6.045 6.5 6.91 6.5H7.09C7.955 6.5 8.749 6.5 9.394 6.587C9.594 6.613 9.798 6.651 10 6.704V6.5C10 5.557 10 5.086 9.707 4.793Z" fill="white"/>
<path fill-rule="evenodd" clip-rule="evenodd" d="M2 21.2502C1.80109 21.2502 1.61032 21.3292 1.46967 21.4698C1.32902 21.6105 1.25 21.8013 1.25 22.0002C1.25 22.1991 1.32902 22.3899 1.46967 22.5305C1.61032 22.6712 1.80109 22.7502 2 22.7502H22C22.1989 22.7502 22.3897 22.6712 22.5303 22.5305C22.671 22.3899 22.75 22.1991 22.75 22.0002C22.75 21.8013 22.671 21.6105 22.5303 21.4698C22.3897 21.3292 22.1989 21.2502 22 21.2502H21V7.77217C21 6.43217 21 5.76117 20.644 5.24717C20.288 4.73317 19.66 4.49717 18.404 4.02717C15.949 3.10617 14.722 2.64617 13.861 3.24217C13 3.84017 13 5.15017 13 7.77217V10.5002H13.09C13.955 10.5002 14.749 10.5002 15.394 10.5872C16.105 10.6822 16.857 10.9072 17.474 11.5252C18.093 12.1432 18.318 12.8952 18.414 13.6052C18.5 14.2512 18.5 15.0452 18.5 15.9112V21.2502H17V16.0002C17 14.1142 17 13.1722 16.414 12.5862C15.828 12.0002 14.886 12.0002 13 12.0002H11C9.114 12.0002 8.172 12.0002 7.586 12.5862C7 13.1722 7 14.1142 7 16.0002V21.2502H5.5V15.9102C5.5 15.0452 5.5 14.2512 5.587 13.6062C5.682 12.8952 5.907 12.1432 6.525 11.5262C7.143 10.9072 7.895 10.6822 8.605 10.5862C9.251 10.5002 10.045 10.5002 10.911 10.5002H10.983C10.943 9.56417 10.818 8.99017 10.414 8.58617C9.828 8.00017 8.886 8.00017 7 8.00017C5.114 8.00017 4.172 8.00017 3.586 8.58617C3 9.17217 3 10.1142 3 12.0002V21.2502H2ZM9.25 15.0002C9.25 14.8013 9.32902 14.6105 9.46967 14.4698C9.61032 14.3292 9.80109 14.2502 10 14.2502H14C14.1989 14.2502 14.3897 14.3292 14.5303 14.4698C14.671 14.6105 14.75 14.8013 14.75 15.0002C14.75 15.1991 14.671 15.3898 14.5303 15.5305C14.3897 15.6712 14.1989 15.7502 14 15.7502H10C9.80109 15.7502 9.61032 15.6712 9.46967 15.5305C9.32902 15.3898 9.25 15.1991 9.25 15.0002ZM9.25 18.0002C9.25 17.8013 9.32902 17.6105 9.46967 17.4698C9.61032 17.3292 9.80109 17.2502 10 17.2502H14C14.1989 17.2502 14.3897 17.3292 14.5303 17.4698C14.671 17.6105 14.75 17.8013 14.75 18.0002C14.75 18.1991 14.671 18.3899 14.5303 18.5305C14.3897 18.6712 14.1989 18.7502 14 18.7502H10C9.80109 18.7502 9.61032 18.6712 9.46967 18.5305C9.32902 18.3899 9.25 18.1991 9.25 18.0002Z" fill="white"/>
</svg>