<svg width="24" height="24" viewBox="0 0 24 24" fill="none" xmlns="http://www.w3.org/2000/svg">
<path fill-rule="evenodd" clip-rule="evenodd" d="M3 12C3 7.02944 7.02944 3 12 3C16.9706 3 21 7.02944 21 12C21 16.9706 16.9706 21 12 21C7.02944 21 3 16.9706 3 12ZM12 1C5.92487 1 1 5.92487 1 12C1 18.0751 5.92487 23 12 23C18.0751 23 23 18.0751 23 12C23 5.92487 18.0751 1 12 1ZM12 6C12 5.44772 11.5523 5 11 5C10.4477 5 10 5.44772 10 6V13V14H11H16C16.5523 14 17 13.5523 17 13C17 12.4477 16.5523 12 16 12H12V6Z" fill="#7630F7"/>
</svg>
