<svg xmlns="http://www.w3.org/2000/svg" width="19" height="18" viewBox="0 0 19 18" fill="none">
  <path fill-rule="evenodd" clip-rule="evenodd" d="M3.5 9C3.5 5.68629 6.18629 3 9.5 3C12.8137 3 15.5 5.68629 15.5 9C15.5 12.3137 12.8137 15 9.5 15C6.18629 15 3.5 12.3137 3.5 9ZM9.5 1.5C5.35786 1.5 2 4.85786 2 9C2 13.1421 5.35786 16.5 9.5 16.5C13.6421 16.5 17 13.1421 17 9C17 4.85786 13.6421 1.5 9.5 1.5ZM13.0303 7.28033C13.3232 6.98744 13.3232 6.51256 13.0303 6.21967C12.7374 5.92678 12.2626 5.92678 11.9697 6.21967L8.75 9.43934L7.03033 7.71967C6.73744 7.42678 6.26256 7.42678 5.96967 7.71967C5.67678 8.01256 5.67678 8.48744 5.96967 8.78033L8.21967 11.0303L8.75 11.5607L9.28033 11.0303L13.0303 7.28033Z" fill="black"/>
</svg>