<svg xmlns="http://www.w3.org/2000/svg" width="30" height="23" viewBox="0 0 30 23" fill="none">
<path fill-rule="evenodd" clip-rule="evenodd" d="M6.54388 0.605984C7.21855 0.365984 7.90388 0.333984 8.47055 0.333984H9.28655C10.6639 0.333984 12.0066 0.760651 13.1306 1.55665L13.7999 2.02998C14.1508 2.27829 14.57 2.41164 14.9999 2.41164C15.4297 2.41164 15.849 2.27829 16.1999 2.02998L16.8692 1.55665C17.9932 0.761135 19.3362 0.33394 20.7132 0.333984H21.5292C22.0972 0.333984 22.7825 0.365984 23.4559 0.605984C25.3799 1.28865 26.9012 2.85665 27.9039 5.39398C28.8959 7.90598 29.4052 11.4207 29.3252 16.154C29.3079 17.154 29.1839 18.274 28.7986 19.282C28.4106 20.3047 27.7292 21.2687 26.5852 21.8153C25.8712 22.158 25.0892 22.3353 24.2972 22.334C23.3794 22.3459 22.4785 22.0862 21.7079 21.5873C21.0786 21.174 20.5279 20.6407 20.0572 20.1847C20.0009 20.1303 19.9444 20.0761 19.8879 20.022C19.3492 19.502 18.8946 19.098 18.3906 18.8353C17.7548 18.506 17.0492 18.334 16.3332 18.334H13.6666C12.95 18.3345 12.244 18.5069 11.6079 18.8367C11.1039 19.098 10.6492 19.5033 10.1106 20.0233L9.94122 20.186C9.47055 20.6407 8.91988 21.1753 8.29055 21.5887C7.51983 22.087 6.61895 22.3463 5.70122 22.334C4.90915 22.3349 4.12708 22.1572 3.41322 21.814C2.26788 21.2673 1.58788 20.3047 1.19988 19.282C0.814551 18.274 0.690551 17.154 0.673218 16.154C0.593218 11.4207 1.10255 7.90598 2.09455 5.39398C3.09722 2.85665 4.61988 1.28732 6.54388 0.605984ZM8.47055 2.33398C7.95855 2.33398 7.55455 2.36998 7.21322 2.48998C5.95988 2.93532 4.80122 3.98998 3.95588 6.12998C3.10122 8.29398 2.59588 11.5113 2.67455 16.1207C2.68922 17.0033 2.80122 17.8647 3.06922 18.57C3.33322 19.2633 3.72255 19.746 4.27722 20.01C4.7216 20.2247 5.20901 20.3355 5.70255 20.334C6.34922 20.334 6.83322 20.1527 7.19588 19.9153C7.65588 19.6127 8.06655 19.218 8.55855 18.742L8.72388 18.582C9.25855 18.0673 9.89722 17.47 10.6879 17.062C11.6085 16.5841 12.6306 16.3344 13.6679 16.334H16.3332C17.3706 16.334 18.3919 16.5833 19.3132 17.0607C20.1026 17.47 20.7426 18.0673 21.2772 18.5807L21.4426 18.7407C21.9359 19.218 22.3452 19.6127 22.8065 19.914C23.1679 20.1527 23.6519 20.334 24.2999 20.334C24.8426 20.334 25.3159 20.206 25.7239 20.0113C26.2785 19.7447 26.6679 19.2633 26.9319 18.5713C27.1999 17.8647 27.3119 17.0033 27.3266 16.1207C27.4039 11.5113 26.8999 8.29398 26.0452 6.12865C25.1999 3.98998 24.0412 2.93532 22.7879 2.48998C22.4466 2.36998 22.0412 2.33398 21.5306 2.33398H20.7146C19.7519 2.33398 18.8119 2.63265 18.0252 3.18865L17.3559 3.66332C16.6674 4.15059 15.8447 4.41226 15.0012 4.41226C14.1577 4.41226 13.335 4.15059 12.6466 3.66332L11.9772 3.18865C11.1908 2.63235 10.2512 2.33373 9.28788 2.33398H8.47055ZM8.99988 7.00065C9.2651 7.00065 9.51945 7.10601 9.70699 7.29354C9.89453 7.48108 9.99988 7.73544 9.99988 8.00065V9.00065H10.9999C11.2651 9.00065 11.5195 9.10601 11.707 9.29354C11.8945 9.48108 11.9999 9.73543 11.9999 10.0007C11.9999 10.2659 11.8945 10.5202 11.707 10.7078C11.5195 10.8953 11.2651 11.0007 10.9999 11.0007H9.99988V12.0007C9.99988 12.2659 9.89453 12.5202 9.70699 12.7078C9.51945 12.8953 9.2651 13.0007 8.99988 13.0007C8.73467 13.0007 8.48031 12.8953 8.29278 12.7078C8.10524 12.5202 7.99988 12.2659 7.99988 12.0007V11.0007H6.99988C6.73467 11.0007 6.48031 10.8953 6.29278 10.7078C6.10524 10.5202 5.99988 10.2659 5.99988 10.0007C5.99988 9.73543 6.10524 9.48108 6.29278 9.29354C6.48031 9.10601 6.73467 9.00065 6.99988 9.00065H7.99988V8.00065C7.99988 7.73544 8.10524 7.48108 8.29278 7.29354C8.48031 7.10601 8.73467 7.00065 8.99988 7.00065Z" fill="black"/>
<path d="M24.333 9.66699C24.333 9.93221 24.2277 10.1866 24.0401 10.3741C23.8526 10.5616 23.5982 10.667 23.333 10.667C23.0678 10.667 22.8134 10.5616 22.6259 10.3741C22.4384 10.1866 22.333 9.93221 22.333 9.66699C22.333 9.40178 22.4384 9.14742 22.6259 8.95989C22.8134 8.77235 23.0678 8.66699 23.333 8.66699C23.5982 8.66699 23.8526 8.77235 24.0401 8.95989C24.2277 9.14742 24.333 9.40178 24.333 9.66699ZM20.333 9.66699C20.333 9.93221 20.2277 10.1866 20.0401 10.3741C19.8526 10.5616 19.5982 10.667 19.333 10.667C19.0678 10.667 18.8134 10.5616 18.6259 10.3741C18.4384 10.1866 18.333 9.93221 18.333 9.66699C18.333 9.40178 18.4384 9.14742 18.6259 8.95989C18.8134 8.77235 19.0678 8.66699 19.333 8.66699C19.5982 8.66699 19.8526 8.77235 20.0401 8.95989C20.2277 9.14742 20.333 9.40178 20.333 9.66699ZM21.333 6.66699C21.5982 6.66699 21.8526 6.77235 22.0401 6.95989C22.2277 7.14742 22.333 7.40178 22.333 7.66699C22.333 7.93221 22.2277 8.18656 22.0401 8.3741C21.8526 8.56163 21.5982 8.66699 21.333 8.66699C21.0678 8.66699 20.8134 8.56163 20.6259 8.3741C20.4384 8.18656 20.333 7.93221 20.333 7.66699C20.333 7.40178 20.4384 7.14742 20.6259 6.95989C20.8134 6.77235 21.0678 6.66699 21.333 6.66699ZM21.333 10.667C21.4643 10.667 21.5944 10.6929 21.7157 10.7431C21.837 10.7934 21.9473 10.867 22.0401 10.9599C22.133 11.0527 22.2066 11.163 22.2569 11.2843C22.3071 11.4056 22.333 11.5357 22.333 11.667C22.333 11.7983 22.3071 11.9284 22.2569 12.0497C22.2066 12.171 22.133 12.2812 22.0401 12.3741C21.9473 12.467 21.837 12.5406 21.7157 12.5909C21.5944 12.6411 21.4643 12.667 21.333 12.667C21.0678 12.667 20.8134 12.5616 20.6259 12.3741C20.4384 12.1866 20.333 11.9322 20.333 11.667C20.333 11.4018 20.4384 11.1474 20.6259 10.9599C20.8134 10.7723 21.0678 10.667 21.333 10.667Z" fill="black"/>
</svg>