<svg width="24" height="24" viewBox="0 0 24 24" fill="none" xmlns="http://www.w3.org/2000/svg">
<path fill-rule="evenodd" clip-rule="evenodd" d="M10.6671 6.134L10.1651 5.779C9.44868 5.2721 8.59268 4.99992 7.71508 5H7.10308C6.69808 5 6.29008 5.025 5.90908 5.16C3.52608 6.006 1.88708 9.095 2.00608 16.103C2.03008 17.515 2.36008 19.075 3.63408 19.684C4.06867 19.8929 4.54487 20.001 5.02708 20C5.56908 20.0089 6.10154 19.8568 6.55708 19.563C6.96708 19.295 7.32708 18.947 7.68708 18.599C8.13108 18.169 8.57508 17.739 9.11108 17.461C9.69506 17.1582 10.3432 17 11.0011 17H13.0001C13.6581 17 14.3061 17.158 14.8901 17.46C15.4261 17.739 15.8701 18.169 16.3151 18.599C16.6751 18.947 17.0351 19.295 17.4431 19.563C17.8331 19.819 18.3381 20 18.9741 20C19.4563 20.001 19.9325 19.8929 20.3671 19.684C21.6411 19.075 21.9711 17.514 21.9951 16.103C22.1141 9.095 20.4751 6.006 18.0921 5.161C17.7101 5.025 17.3001 5 16.8971 5H16.2851C15.4074 5.00015 14.5513 5.27268 13.8351 5.78L13.3331 6.134C12.9433 6.40977 12.4776 6.55786 12.0001 6.55786C11.5226 6.55786 11.0569 6.40977 10.6671 6.134ZM16.7501 9C16.949 9 17.1398 9.07902 17.2804 9.21967C17.4211 9.36032 17.5001 9.55109 17.5001 9.75C17.5001 9.94891 17.4211 10.1397 17.2804 10.2803C17.1398 10.421 16.949 10.5 16.7501 10.5C16.5512 10.5 16.3604 10.421 16.2198 10.2803C16.0791 10.1397 16.0001 9.94891 16.0001 9.75C16.0001 9.55109 16.0791 9.36032 16.2198 9.21967C16.3604 9.07902 16.5512 9 16.7501 9ZM7.50008 9.25C7.69899 9.25 7.88976 9.32902 8.03041 9.46967C8.17106 9.61032 8.25008 9.80109 8.25008 10V10.75H9.00008C9.19899 10.75 9.38976 10.829 9.53041 10.9697C9.67106 11.1103 9.75008 11.3011 9.75008 11.5C9.75008 11.6989 9.67106 11.8897 9.53041 12.0303C9.38976 12.171 9.19899 12.25 9.00008 12.25H8.25008V13C8.25008 13.1989 8.17106 13.3897 8.03041 13.5303C7.88976 13.671 7.69899 13.75 7.50008 13.75C7.30117 13.75 7.1104 13.671 6.96975 13.5303C6.8291 13.3897 6.75008 13.1989 6.75008 13V12.25H6.00008C5.80117 12.25 5.6104 12.171 5.46975 12.0303C5.3291 11.8897 5.25008 11.6989 5.25008 11.5C5.25008 11.3011 5.3291 11.1103 5.46975 10.9697C5.6104 10.829 5.80117 10.75 6.00008 10.75H6.75008V10C6.75008 9.80109 6.8291 9.61032 6.96975 9.46967C7.1104 9.32902 7.30117 9.25 7.50008 9.25ZM19.0001 11.25C19.0001 11.4489 18.9211 11.6397 18.7804 11.7803C18.6398 11.921 18.449 12 18.2501 12C18.0512 12 17.8604 11.921 17.7198 11.7803C17.5791 11.6397 17.5001 11.4489 17.5001 11.25C17.5001 11.0511 17.5791 10.8603 17.7198 10.7197C17.8604 10.579 18.0512 10.5 18.2501 10.5C18.449 10.5 18.6398 10.579 18.7804 10.7197C18.9211 10.8603 19.0001 11.0511 19.0001 11.25ZM15.2501 12C15.449 12 15.6398 11.921 15.7804 11.7803C15.9211 11.6397 16.0001 11.4489 16.0001 11.25C16.0001 11.0511 15.9211 10.8603 15.7804 10.7197C15.6398 10.579 15.449 10.5 15.2501 10.5C15.0512 10.5 14.8604 10.579 14.7198 10.7197C14.5791 10.8603 14.5001 11.0511 14.5001 11.25C14.5001 11.4489 14.5791 11.6397 14.7198 11.7803C14.8604 11.921 15.0512 12 15.2501 12ZM17.5001 12.75C17.5001 12.5511 17.4211 12.3603 17.2804 12.2197C17.1398 12.079 16.949 12 16.7501 12C16.5512 12 16.3604 12.079 16.2198 12.2197C16.0791 12.3603 16.0001 12.5511 16.0001 12.75C16.0001 12.9489 16.0791 13.1397 16.2198 13.2803C16.3604 13.421 16.5512 13.5 16.7501 13.5C16.949 13.5 17.1398 13.421 17.2804 13.2803C17.4211 13.1397 17.5001 12.9489 17.5001 12.75Z" fill="#AFAFAF"/>
</svg>
