<svg width="25" height="24" viewBox="0 0 25 24" fill="none" xmlns="http://www.w3.org/2000/svg">
<path fill-rule="evenodd" clip-rule="evenodd" d="M3.7998 19V10.8981C3.7998 10.3268 4.0441 9.78284 4.47108 9.40331L11.4711 3.18108C12.2288 2.50751 13.3708 2.50751 14.1285 3.18108L21.1285 9.40331C21.5555 9.78284 21.7998 10.3268 21.7998 10.8981V19C21.7998 20.6568 20.4567 22 18.7998 22H6.79981C5.14295 22 3.7998 20.6568 3.7998 19ZM8.7998 16C8.24752 16 7.7998 16.4477 7.7998 17C7.7998 17.5523 8.24752 18 8.7998 18H16.7998C17.3521 18 17.7998 17.5523 17.7998 17C17.7998 16.4477 17.3521 16 16.7998 16H8.7998Z" fill="black"/>
</svg>
