<svg width="24" height="24" viewBox="0 0 24 24" fill="none" xmlns="http://www.w3.org/2000/svg">
<path d="M2.2202 9.21802L6.7142 4.72302C6.84119 4.596 7.00954 4.51877 7.18865 4.50538C7.36776 4.49198 7.54573 4.5433 7.6902 4.65002L7.7752 4.72202L12.2792 9.21702C12.4125 9.35086 12.4904 9.53006 12.4973 9.71882C12.5042 9.90758 12.4396 10.092 12.3165 10.2352C12.1933 10.3784 12.0207 10.4699 11.833 10.4914C11.6454 10.5129 11.4565 10.4627 11.3042 10.351L11.2202 10.279L7.9972 7.06202L7.9972 18.758C7.99698 18.9389 7.93138 19.1137 7.81248 19.25C7.69358 19.3864 7.5294 19.4752 7.3502 19.5L7.2492 19.507C7.06796 19.507 6.89286 19.4414 6.75627 19.3223C6.61968 19.2031 6.53085 19.0386 6.5062 18.859L6.4992 18.757L6.4982 7.05902L3.2812 10.277C3.15421 10.404 2.98585 10.4813 2.80675 10.4947C2.62764 10.5081 2.44967 10.4567 2.3052 10.35L2.2212 10.277C2.09418 10.15 2.01695 9.98168 2.00355 9.80257C1.99016 9.62346 2.04148 9.44549 2.1482 9.30102L2.2212 9.21702L6.7152 4.72202L2.2212 9.21702L2.2202 9.21802ZM16.6502 4.50002L16.7502 4.49302C16.9316 4.49278 17.107 4.55831 17.2438 4.67746C17.3805 4.7966 17.4695 4.9613 17.4942 5.14102L17.5012 5.24302L17.5002 16.939L20.7202 13.718C20.8472 13.591 21.0155 13.5138 21.1946 13.5004C21.3738 13.487 21.5517 13.5383 21.6962 13.645L21.7802 13.717C21.9075 13.8441 21.9849 14.0126 21.9983 14.192C22.0117 14.3713 21.9602 14.5495 21.8532 14.694L21.7812 14.778L17.2842 19.278C17.1572 19.405 16.9889 19.4823 16.8097 19.4957C16.6306 19.5091 16.4527 19.4577 16.3082 19.351L16.2242 19.278L11.7202 14.778C11.5872 14.644 11.5097 14.4648 11.5031 14.2762C11.4964 14.0875 11.5612 13.9033 11.6844 13.7603C11.8076 13.6172 11.9802 13.5259 12.1677 13.5046C12.3553 13.4832 12.544 13.5334 12.6962 13.645L12.7802 13.717L16.0002 16.935V5.24302C16.0003 5.06148 16.0662 4.88613 16.1857 4.7495C16.3052 4.61287 16.4703 4.52422 16.6502 4.50002L16.7502 4.49302L16.6502 4.50002Z" fill="white"/>
</svg>
