<svg width="320" height="180" viewBox="0 0 320 180" fill="none" xmlns="http://www.w3.org/2000/svg">
<g clip-path="url(#clip0_2101_25530)">
<path fill-rule="evenodd" clip-rule="evenodd" d="M165.575 1.20232C164.65 -0.400769 162.336 -0.400773 161.41 1.20231L147.193 25.8269C146.007 27.8819 143.623 28.8555 141.25 28.8555C130.958 28.8555 122.614 37.1991 122.614 47.4914C122.614 57.7837 130.958 66.1272 141.25 66.1272C151.542 66.1272 159.886 57.7837 159.886 47.4914C159.886 42.8479 163.01 37.2717 167.654 37.2717H182.235C184.086 37.2717 185.243 35.2679 184.318 33.6648L165.575 1.20232ZM169.075 47.7955C170.784 44.1966 175.087 42.6645 178.686 44.3735L193.264 51.2964C196.863 53.0054 198.395 57.3084 196.686 60.9073L189.443 76.159C187.734 79.758 183.431 81.29 179.832 79.581L165.254 72.6581C161.655 70.9491 160.123 66.6461 161.832 63.0472L169.075 47.7955Z" fill="url(#paint0_radial_2101_25530)"/>
</g>
<path d="M39.4245 148.313H27.6924V103.372H39.4245V148.313Z" fill="black"/>
<path d="M77.5914 148.313H45.9852V141.389L62.6538 122.412H46.5622V113.629L76.9503 113.693V120.617L60.2817 139.594H77.5914V148.313Z" fill="black"/>
<path d="M99.6297 148.697C96.296 148.697 93.1973 148.078 90.3338 146.838C87.4702 145.599 85.1515 143.665 83.3778 141.036C81.6041 138.408 80.7173 135.042 80.7173 130.939C80.7173 127.007 81.5614 123.726 83.2496 121.098C85.0661 118.363 87.4168 116.375 90.3017 115.136C93.1866 113.875 96.296 113.244 99.6297 113.244C102.942 113.244 106.041 113.864 108.926 115.104C111.832 116.322 114.204 118.288 116.042 121.002C117.751 123.609 118.606 126.921 118.606 130.939C118.606 133.247 118.243 135.469 117.516 137.606C116.811 139.722 115.689 141.613 114.151 143.28C112.633 144.947 110.678 146.272 108.285 147.255C105.891 148.216 103.006 148.697 99.6297 148.697ZM99.6297 139.722C102.194 139.722 104.085 138.878 105.303 137.19C106.522 135.501 107.131 133.46 107.131 131.067C107.131 128.716 106.532 126.697 105.335 125.009C104.139 123.32 102.237 122.476 99.6297 122.476C98.0483 122.476 96.702 122.861 95.5908 123.63C94.4795 124.378 93.6354 125.404 93.0584 126.708C92.4814 127.99 92.1929 129.443 92.1929 131.067C92.1929 133.76 92.8875 135.875 94.2765 137.414C95.6656 138.953 97.45 139.722 99.6297 139.722Z" fill="black"/>
<path d="M146.603 148.697C142.201 148.697 138.717 147.073 136.153 143.825V148.313H124.741V100.743H136.153V118.117C138.632 114.869 142.03 113.244 146.346 113.244C149.188 113.244 151.849 113.896 154.328 115.2C156.807 116.503 158.816 118.544 160.354 121.322C161.786 123.972 162.502 127.242 162.502 131.131C162.502 133.396 162.203 135.587 161.604 137.702C161.027 139.797 160.098 141.667 158.816 143.312C157.555 144.958 155.92 146.272 153.911 147.255C151.902 148.216 149.466 148.697 146.603 148.697ZM143.525 139.465C146.133 139.465 148.035 138.621 149.231 136.933C150.428 135.245 151.026 133.225 151.026 130.875C151.026 128.524 150.417 126.494 149.199 124.784C147.981 123.075 146.09 122.22 143.525 122.22C141.047 122.22 139.198 123.075 137.98 124.784C136.762 126.494 136.153 128.524 136.153 130.875C136.153 133.781 136.879 135.939 138.333 137.35C139.786 138.76 141.517 139.465 143.525 139.465Z" fill="black"/>
<path d="M174.077 109.847C172.068 109.847 170.561 109.227 169.557 107.987C168.553 106.748 168.05 105.338 168.05 103.756C168.05 101.705 168.66 100.177 169.878 99.1724C171.096 98.168 172.495 97.6658 174.077 97.6658C175.658 97.6658 177.058 98.168 178.276 99.1724C179.494 100.177 180.103 101.705 180.103 103.756C180.103 105.338 179.601 106.748 178.597 107.987C177.592 109.227 176.086 109.847 174.077 109.847ZM179.718 148.313H168.371V113.629H179.718V148.313Z" fill="black"/>
<path d="M199.815 148.89C197.721 148.89 195.755 148.462 193.917 147.607C192.079 146.753 190.605 145.374 189.494 143.472C188.382 141.57 187.827 139.038 187.827 135.875V100.743H199.238V135.362C199.238 137.713 200.243 138.888 202.252 138.888C203.235 138.888 204.324 138.589 205.521 137.991L206.483 147.415C204.175 148.398 201.952 148.89 199.815 148.89Z" fill="black"/>
<path d="M216.337 109.847C214.328 109.847 212.821 109.227 211.817 107.987C210.813 106.748 210.31 105.338 210.31 103.756C210.31 101.705 210.919 100.177 212.138 99.1724C213.356 98.168 214.755 97.6658 216.337 97.6658C217.918 97.6658 219.318 98.168 220.536 99.1724C221.754 100.177 222.363 101.705 222.363 103.756C222.363 105.338 221.861 106.748 220.856 107.987C219.852 109.227 218.346 109.847 216.337 109.847ZM221.978 148.313H210.631V113.629H221.978V148.313Z" fill="black"/>
<path d="M243.935 148.825C240.686 148.825 237.94 147.917 235.696 146.101C233.453 144.284 232.331 141.496 232.331 137.734V122.861H227.522V115.296H232.331V105.68H243.678V115.296H252.654V122.861H243.678V135.939C243.678 138.376 244.618 139.594 246.499 139.594C247.867 139.594 249.405 139.209 251.115 138.44L253.295 146.518C250.474 148.056 247.354 148.825 243.935 148.825Z" fill="black"/>
<path d="M263.842 161.263C259.996 161.263 256.576 160.066 253.585 157.673L258.329 149.787C259.739 151.069 261.278 151.71 262.945 151.71C264.868 151.71 266.257 150.834 267.112 149.082L267.945 147.479L253.585 113.629H265.317L273.587 136.196L280.96 113.629H292.307L277.433 151.71C274.912 158.079 270.381 161.263 263.842 161.263Z" fill="black"/>
<defs>
<radialGradient id="paint0_radial_2101_25530" cx="0" cy="0" r="1" gradientUnits="userSpaceOnUse" gradientTransform="translate(165.317 42.5446) rotate(90) scale(37.7353 40.298)">
<stop stop-color="#552BFF"/>
<stop offset="1" stop-color="#CCFF00" stop-opacity="0.98"/>
</radialGradient>
<clipPath id="clip0_2101_25530">
<rect width="74.7707" height="80.28" fill="white" transform="translate(122.614)"/>
</clipPath>
</defs>
</svg>
