<svg width="270" height="151" viewBox="0 0 270 151" fill="none" xmlns="http://www.w3.org/2000/svg">
<g clip-path="url(#clip0_31191_1237)">
<path fill-rule="evenodd" clip-rule="evenodd" d="M140.076 1.20232C139.151 -0.400769 136.837 -0.400773 135.911 1.20231L121.694 25.8269C120.508 27.8819 118.124 28.8555 115.751 28.8555V28.8555C105.459 28.8555 97.1152 37.1991 97.1152 47.4914C97.1152 57.7837 105.459 66.1272 115.751 66.1272C126.043 66.1272 134.387 57.7837 134.387 47.4914V47.4914C134.387 42.8479 137.511 37.2717 142.155 37.2717H156.736C158.587 37.2717 159.744 35.2679 158.819 33.6648L140.076 1.20232ZM143.576 47.7955C145.285 44.1966 149.588 42.6645 153.187 44.3735L167.765 51.2964C171.364 53.0054 172.896 57.3084 171.187 60.9073L163.945 76.159C162.236 79.758 157.933 81.29 154.334 79.581L139.756 72.6581C136.157 70.9491 134.625 66.6461 136.334 63.0472L143.576 47.7955Z" fill="url(#paint0_radial_31191_1237)"/>
</g>
<path d="M14.809 138.666H4.012V97.3068H14.809V138.666ZM49.9338 138.666H20.8468V132.294L36.1868 114.83H21.3778V106.747L49.3438 106.806V113.178L34.0038 130.642H49.9338V138.666ZM70.2155 139.02C67.1475 139.02 64.2959 138.449 61.6605 137.309C59.0252 136.168 56.8914 134.388 55.259 131.969C53.6267 129.55 52.8105 126.453 52.8105 122.677C52.8105 119.058 53.5874 116.039 55.141 113.62C56.8127 111.103 58.976 109.274 61.631 108.133C64.286 106.973 67.1475 106.393 70.2155 106.393C73.2639 106.393 76.1155 106.963 78.7705 108.104C81.4452 109.225 83.6282 111.034 85.3195 113.532C86.8929 115.931 87.6795 118.979 87.6795 122.677C87.6795 124.801 87.3452 126.846 86.6765 128.813C86.0275 130.76 84.995 132.5 83.579 134.034C82.1827 135.568 80.3832 136.788 78.1805 137.692C75.9779 138.577 73.3229 139.02 70.2155 139.02ZM70.2155 130.76C72.5755 130.76 74.316 129.983 75.437 128.429C76.558 126.876 77.1185 124.997 77.1185 122.795C77.1185 120.631 76.5679 118.773 75.4665 117.219C74.3652 115.666 72.6149 114.889 70.2155 114.889C68.7602 114.889 67.5212 115.243 66.4985 115.951C65.4759 116.639 64.699 117.583 64.168 118.783C63.637 119.963 63.3715 121.3 63.3715 122.795C63.3715 125.273 64.0107 127.22 65.289 128.636C66.5674 130.052 68.2095 130.76 70.2155 130.76ZM113.445 139.02C109.393 139.02 106.188 137.525 103.828 134.536V138.666H93.3256V94.8878H103.828V110.877C106.109 107.887 109.236 106.393 113.209 106.393C115.824 106.393 118.273 106.993 120.554 108.192C122.835 109.392 124.684 111.27 126.1 113.827C127.418 116.265 128.077 119.274 128.077 122.854C128.077 124.938 127.801 126.954 127.251 128.901C126.72 130.829 125.864 132.549 124.684 134.064C123.524 135.578 122.019 136.788 120.171 137.692C118.322 138.577 116.08 139.02 113.445 139.02ZM110.613 130.524C113.012 130.524 114.762 129.747 115.864 128.193C116.965 126.64 117.516 124.781 117.516 122.618C117.516 120.454 116.955 118.586 115.834 117.013C114.713 115.439 112.973 114.653 110.613 114.653C108.331 114.653 106.63 115.439 105.509 117.013C104.388 118.586 103.828 120.454 103.828 122.618C103.828 125.292 104.496 127.279 105.834 128.577C107.171 129.875 108.764 130.524 110.613 130.524ZM138.729 103.266C136.88 103.266 135.494 102.695 134.569 101.555C133.645 100.414 133.183 99.1161 133.183 97.6608C133.183 95.7728 133.743 94.3666 134.864 93.4423C135.985 92.5179 137.273 92.0558 138.729 92.0558C140.184 92.0558 141.472 92.5179 142.593 93.4423C143.714 94.3666 144.275 95.7728 144.275 97.6608C144.275 99.1161 143.813 100.414 142.888 101.555C141.964 102.695 140.577 103.266 138.729 103.266ZM143.921 138.666H133.478V106.747H143.921V138.666ZM162.416 139.197C160.489 139.197 158.679 138.803 156.988 138.017C155.297 137.23 153.94 135.962 152.917 134.211C151.894 132.461 151.383 130.13 151.383 127.22V94.8878H161.885V126.748C161.885 128.911 162.809 129.993 164.658 129.993C165.563 129.993 166.566 129.717 167.667 129.167L168.552 137.84C166.428 138.744 164.383 139.197 162.416 139.197ZM177.62 103.266C175.772 103.266 174.385 102.695 173.461 101.555C172.537 100.414 172.074 99.1161 172.074 97.6608C172.074 95.7728 172.635 94.3666 173.756 93.4423C174.877 92.5179 176.165 92.0558 177.62 92.0558C179.076 92.0558 180.364 92.5179 181.485 93.4423C182.606 94.3666 183.166 95.7728 183.166 97.6608C183.166 99.1161 182.704 100.414 181.78 101.555C180.856 102.695 179.469 103.266 177.62 103.266ZM182.812 138.666H172.369V106.747H182.812V138.666ZM203.019 139.138C200.029 139.138 197.502 138.302 195.437 136.63C193.372 134.959 192.34 132.392 192.34 128.931V115.243H187.915V108.281H192.34V99.4308H202.783V108.281H211.043V115.243H202.783V127.279C202.783 129.521 203.648 130.642 205.379 130.642C206.637 130.642 208.053 130.288 209.627 129.58L211.633 137.014C209.037 138.43 206.165 139.138 203.019 139.138ZM221.339 150.584C217.799 150.584 214.653 149.482 211.899 147.28L216.265 140.023C217.563 141.203 218.979 141.793 220.513 141.793C222.283 141.793 223.562 140.986 224.348 139.374L225.115 137.899L211.899 106.747H222.696L230.307 127.515L237.092 106.747H247.535L233.847 141.793C231.527 147.653 227.357 150.584 221.339 150.584Z" fill="black"/>
<defs>
<radialGradient id="paint0_radial_31191_1237" cx="0" cy="0" r="1" gradientUnits="userSpaceOnUse" gradientTransform="translate(139.818 42.5446) rotate(90) scale(37.7354 40.2983)">
<stop stop-color="#552BFF"/>
<stop offset="1" stop-color="#CCFF00" stop-opacity="0.98"/>
</radialGradient>
<clipPath id="clip0_31191_1237">
<rect width="74.7713" height="80.2801" fill="white" transform="translate(97.1152)"/>
</clipPath>
</defs>
</svg>
