<svg width="24" height="24" viewBox="0 0 24 24" fill="none" xmlns="http://www.w3.org/2000/svg">
<g id="Mastercard">
<path id="Icon" fill-rule="evenodd" clip-rule="evenodd" d="M12 6.11966C10.3118 7.473 9.23077 9.55257 9.23077 11.8846C9.23077 14.2167 10.3118 16.2962 12 17.6496C10.7358 18.663 9.13098 19.2692 7.38462 19.2692C3.3062 19.2692 0 15.963 0 11.8846C0 7.8062 3.3062 4.5 7.38462 4.5C9.13098 4.5 10.7358 5.1062 12 6.11966Z" fill="#EB001B"/>
<path id="Icon_2" fill-rule="evenodd" clip-rule="evenodd" d="M12 6.11966C13.6882 7.473 14.7692 9.55257 14.7692 11.8846C14.7692 14.2167 13.6882 16.2962 12 17.6496C13.2642 18.663 14.869 19.2692 16.6154 19.2692C20.6938 19.2692 24 15.963 24 11.8846C24 7.8062 20.6938 4.5 16.6154 4.5C14.869 4.5 13.2642 5.1062 12 6.11966Z" fill="#F79E1B"/>
<path id="Icon_3" fill-rule="evenodd" clip-rule="evenodd" d="M11.9997 17.65C13.6879 16.2967 14.7689 14.2171 14.7689 11.8851C14.7689 9.55303 13.6879 7.47346 11.9997 6.12012C10.3115 7.47346 9.23047 9.55303 9.23047 11.8851C9.23047 14.2171 10.3115 16.2967 11.9997 17.65Z" fill="#FF5F00"/>
</g>
</svg>
