<svg width="35" height="35" viewBox="0 0 35 35" fill="none" xmlns="http://www.w3.org/2000/svg">
<path fill-rule="evenodd" clip-rule="evenodd" d="M17.4099 32.7337C25.8232 32.7337 32.6435 25.9134 32.6435 17.5001C32.6435 9.0868 25.8232 2.26648 17.4099 2.26648C8.99659 2.26648 2.17627 9.0868 2.17627 17.5001C2.17627 25.9134 8.99659 32.7337 17.4099 32.7337ZM20.9256 8.12557C20.9256 10.0671 19.3517 11.641 17.4102 11.641C15.4686 11.641 13.8947 10.0671 13.8947 8.12557C13.8947 6.18405 15.4686 4.61013 17.4102 4.61013C19.3517 4.61013 20.9256 6.18405 20.9256 8.12557ZM19.5865 26.8748C19.5865 28.0766 18.6123 29.0507 17.4106 29.0507C16.2089 29.0507 15.2347 28.0766 15.2347 26.8748C15.2347 25.8776 15.9056 25.037 16.8207 24.7798C16.0197 23.3789 14.6559 22.3462 13.0394 21.9767C14.7939 21.4848 16.24 20.2495 17.0044 18.6335L16.6404 18.2695L11.9693 13.5983V24.0288H9.79303V10.9714V8.34445L11.6506 10.202L17.4098 15.9612L23.1691 10.202L25.0266 8.34445V10.9714V24.0288H22.8504V13.5983L18.1792 18.2695L17.8203 18.6284C18.5899 20.2441 20.0241 21.4799 21.7802 21.9767C20.1709 22.3479 18.814 23.385 18.0085 24.7821C18.9195 25.0419 19.5865 25.8805 19.5865 26.8748Z" fill="url(#paint0_linear_1953_4450)"/>
<circle cx="17.4099" cy="17.5001" r="14.1455" stroke="#151B52" stroke-width="2.17623"/>
<defs>
<linearGradient id="paint0_linear_1953_4450" x1="10.8812" y1="3.35459" x2="17.4099" y2="32.7337" gradientUnits="userSpaceOnUse">
<stop stop-color="#F27C4A"/>
<stop offset="1" stop-color="#F4946A"/>
</linearGradient>
</defs>
</svg>
