<svg xmlns="http://www.w3.org/2000/svg" width="24" height="24" viewBox="0 0 24 24" fill="none">
<path d="M9.375 3.375H5.25C4.75272 3.375 4.27581 3.57254 3.92417 3.92417C3.57254 4.27581 3.375 4.75272 3.375 5.25V9.375C3.375 9.87228 3.57254 10.3492 3.92417 10.7008C4.27581 11.0525 4.75272 11.25 5.25 11.25H9.375C9.87228 11.25 10.3492 11.0525 10.7008 10.7008C11.0525 10.3492 11.25 9.87228 11.25 9.375V5.25C11.25 4.75272 11.0525 4.27581 10.7008 3.92417C10.3492 3.57254 9.87228 3.375 9.375 3.375ZM9 9H5.625V5.625H9V9ZM9.375 12.75H5.25C4.75272 12.75 4.27581 12.9475 3.92417 13.2992C3.57254 13.6508 3.375 14.1277 3.375 14.625V18.75C3.375 19.2473 3.57254 19.7242 3.92417 20.0758C4.27581 20.4275 4.75272 20.625 5.25 20.625H9.375C9.87228 20.625 10.3492 20.4275 10.7008 20.0758C11.0525 19.7242 11.25 19.2473 11.25 18.75V14.625C11.25 14.1277 11.0525 13.6508 10.7008 13.2992C10.3492 12.9475 9.87228 12.75 9.375 12.75ZM9 18.375H5.625V15H9V18.375ZM18.75 3.375H14.625C14.1277 3.375 13.6508 3.57254 13.2992 3.92417C12.9475 4.27581 12.75 4.75272 12.75 5.25V9.375C12.75 9.87228 12.9475 10.3492 13.2992 10.7008C13.6508 11.0525 14.1277 11.25 14.625 11.25H18.75C19.2473 11.25 19.7242 11.0525 20.0758 10.7008C20.4275 10.3492 20.625 9.87228 20.625 9.375V5.25C20.625 4.75272 20.4275 4.27581 20.0758 3.92417C19.7242 3.57254 19.2473 3.375 18.75 3.375ZM18.375 9H15V5.625H18.375V9ZM12.75 16.125V13.875C12.75 13.5766 12.8685 13.2905 13.0795 13.0795C13.2905 12.8685 13.5766 12.75 13.875 12.75C14.1734 12.75 14.4595 12.8685 14.6705 13.0795C14.8815 13.2905 15 13.5766 15 13.875V16.125C15 16.4234 14.8815 16.7095 14.6705 16.9205C14.4595 17.1315 14.1734 17.25 13.875 17.25C13.5766 17.25 13.2905 17.1315 13.0795 16.9205C12.8685 16.7095 12.75 16.4234 12.75 16.125ZM20.625 15.375C20.625 15.6734 20.5065 15.9595 20.2955 16.1705C20.0845 16.3815 19.7984 16.5 19.5 16.5H18.375V19.5C18.375 19.7984 18.2565 20.0845 18.0455 20.2955C17.8345 20.5065 17.5484 20.625 17.25 20.625H13.875C13.5766 20.625 13.2905 20.5065 13.0795 20.2955C12.8685 20.0845 12.75 19.7984 12.75 19.5C12.75 19.2016 12.8685 18.9155 13.0795 18.7045C13.2905 18.4935 13.5766 18.375 13.875 18.375H16.125V13.875C16.125 13.5766 16.2435 13.2905 16.4545 13.0795C16.6655 12.8685 16.9516 12.75 17.25 12.75C17.5484 12.75 17.8345 12.8685 18.0455 13.0795C18.2565 13.2905 18.375 13.5766 18.375 13.875V14.25H19.5C19.7984 14.25 20.0845 14.3685 20.2955 14.5795C20.5065 14.7905 20.625 15.0766 20.625 15.375Z" fill="black"/>
</svg>