<svg width="32" height="32" viewBox="0 0 32 32" fill="none" xmlns="http://www.w3.org/2000/svg">
<path d="M5.3335 9.3335V8.00016C5.3335 7.29292 5.61445 6.61464 6.11454 6.11454C6.61464 5.61445 7.29292 5.3335 8.00016 5.3335H10.6668M5.3335 22.6668V24.0002C5.3335 24.7074 5.61445 25.3857 6.11454 25.8858C6.61464 26.3859 7.29292 26.6668 8.00016 26.6668H10.6668M21.3335 5.3335H24.0002C24.7074 5.3335 25.3857 5.61445 25.8858 6.11454C26.3859 6.61464 26.6668 7.29292 26.6668 8.00016V9.3335M21.3335 26.6668H24.0002C24.7074 26.6668 25.3857 26.3859 25.8858 25.8858C26.3859 25.3857 26.6668 24.7074 26.6668 24.0002V22.6668M6.66683 16.0002H25.3335" stroke="black" stroke-width="2.66667" stroke-linecap="round" stroke-linejoin="round"/>
</svg>
