<svg xmlns="http://www.w3.org/2000/svg" width="24" height="24" viewBox="0 0 24 24" fill="none">
  <path fill-rule="evenodd" clip-rule="evenodd" d="M12 4C7.58172 4 4 7.58172 4 12C4 16.4183 7.58172 20 12 20C16.4183 20 20 16.4183 20 12C20 7.58172 16.4183 4 12 4ZM2 12C2 6.47715 6.47715 2 12 2C17.5228 2 22 6.47715 22 12C22 17.5228 17.5228 22 12 22C6.47715 22 2 17.5228 2 12ZM12 15C12.5523 15 13 15.4477 13 16V17C13 17.5523 12.5523 18 12 18C11.4477 18 11 17.5523 11 17V16C11 15.4477 11.4477 15 12 15ZM10 10C10 8.89543 10.8954 8 12 8C13.1046 8 14 8.89543 14 10C14 11.1046 13.1046 12 12 12C11.4477 12 11 12.4477 11 13C11 13.5523 11.4477 14 12 14C14.2091 14 16 12.2091 16 10C16 7.79086 14.2091 6 12 6C9.79086 6 8 7.79086 8 10C8 10.5523 8.44772 11 9 11C9.55228 11 10 10.5523 10 10Z" fill="black"/>
</svg>