<svg width="29" height="29" viewBox="0 0 29 29" fill="none" xmlns="http://www.w3.org/2000/svg">
<rect x="0.666687" y="0.995605" width="28" height="28" rx="14" fill="#E64646"/>
<path fill-rule="evenodd" clip-rule="evenodd" d="M21.7273 10.0563C22.3131 9.47048 22.3131 8.52073 21.7273 7.93495C21.1416 7.34916 20.1918 7.34916 19.606 7.93495L14.6667 12.8743L9.72735 7.93495C9.14156 7.34916 8.19181 7.34916 7.60603 7.93495C7.02024 8.52073 7.02024 9.47048 7.60603 10.0563L12.5454 14.9956L7.60603 19.9349C7.02024 20.5207 7.02024 21.4705 7.60603 22.0563C8.19181 22.6421 9.14156 22.6421 9.72735 22.0563L14.6667 17.1169L19.606 22.0563C20.1918 22.6421 21.1416 22.6421 21.7273 22.0563C22.3131 21.4705 22.3131 20.5207 21.7273 19.9349L16.788 14.9956L21.7273 10.0563Z" fill="white"/>
</svg>
