<svg width="18" height="18" viewBox="0 0 18 18" fill="none" xmlns="http://www.w3.org/2000/svg">
<path d="M17.3296 0.670019C17.1405 0.482186 16.9032 0.35014 16.6438 0.288393C16.3845 0.226647 16.1132 0.23759 15.8596 0.320019L1.22964 5.20002C0.958307 5.28599 0.718542 5.45045 0.540623 5.67261C0.362705 5.89477 0.254614 6.16468 0.230004 6.44824C0.205393 6.7318 0.265366 7.01629 0.402348 7.26579C0.53933 7.51528 0.747177 7.71858 0.999636 7.85002L7.06964 10.85L10.0696 16.94C10.1902 17.1784 10.3747 17.3785 10.6025 17.518C10.8304 17.6576 11.0925 17.731 11.3596 17.73H11.4596C11.7457 17.7089 12.0189 17.6023 12.2436 17.424C12.4683 17.2456 12.6341 17.0039 12.7196 16.73L17.6696 2.14002C17.758 1.88795 17.773 1.61596 17.7128 1.35572C17.6526 1.09547 17.5197 0.857676 17.3296 0.670019ZM1.84964 6.58002L14.6196 2.32002L7.52964 9.41002L1.84964 6.58002ZM11.4296 16.15L8.58964 10.47L15.6796 3.38002L11.4296 16.15Z" fill="white"/>
</svg>
