<svg width="24" height="24" viewBox="0 0 24 24" fill="none" xmlns="http://www.w3.org/2000/svg">
<g id="elements">
<path id="Vector" d="M9.28581 1.91925C8.51801 2.68705 7.75716 3.04352 6.66252 3.04352C5.70674 3.04352 4.34693 2.85815 3.60001 3.61135C2.859 4.35859 3.04355 5.71281 3.04355 6.66249C3.04355 7.75716 2.68705 8.51801 1.91923 9.28583C0.639751 10.5653 1.10583e-05 11.205 0 12C1.96761e-05 12.795 0.639767 13.4348 1.91926 14.7143C2.7794 15.5744 3.04355 16.1298 3.04355 17.3376C3.04355 18.2933 2.85818 19.6532 3.6114 20.4001C4.35864 21.1411 5.71283 20.9565 6.6625 20.9565C7.82821 20.9565 8.38957 21.1845 9.22152 22.0165C9.92994 22.7249 10.8796 24.0001 12.0001 24.0001C13.1205 24.0001 14.0702 22.7249 14.7786 22.0165C15.6105 21.1845 16.1719 20.9565 17.3376 20.9565C18.2872 20.9565 19.6414 21.141 20.3887 20.4001C21.1419 19.6532 20.9565 18.2933 20.9565 17.3376C20.9565 16.1298 21.2207 15.5743 22.0808 14.7143C23.3603 13.4348 24.0001 12.795 24.0001 12C24.0001 11.205 23.3603 10.5653 22.0808 9.28583C21.2207 8.42568 20.9565 7.87032 20.9565 6.66249C20.9565 5.70673 21.1419 4.34693 20.3887 3.60001C19.6415 2.85897 18.2873 3.04352 17.3376 3.04352C16.2426 3.04352 15.4819 2.68689 14.7143 1.91925C13.4348 0.63975 12.795 2.28792e-07 12 0C11.2051 3.05056e-07 10.5653 0.63975 9.28581 1.91925Z" fill="#0075FF"/>
<path id="Vector 6662" d="M7.45288 13.0826C7.45288 13.0826 9.27183 13.873 10.1813 15.0314C10.1813 15.0314 12.9097 10.4841 16.5476 8.96826" stroke="white" stroke-width="1.6" stroke-linecap="round" stroke-linejoin="round"/>
</g>
</svg>
