<svg width="101" height="32" viewBox="0 0 101 32" fill="none" xmlns="http://www.w3.org/2000/svg">
<g clip-path="url(#clip0_2678_40966)">
<path d="M35.5886 14.9686L36.0567 13.4795L34.5082 13.5278C34.3774 13.5278 33.4265 13.501 32.504 12.8362C32.5728 12.8429 32.6415 12.8523 32.7117 12.8523C33.6612 12.8523 34.5797 12.284 34.948 11.4717L35.6143 10.0041C34.7794 10.0148 34.016 9.91027 34.016 9.91027C34.0092 9.90893 33.4076 9.83247 32.7117 9.1262C32.2126 8.61953 31.5949 8.35147 30.9258 8.35147C30.6332 8.35147 30.3715 8.40373 30.1463 8.4748C30.1814 8.35553 30.215 8.23487 30.234 8.1102C30.447 6.7364 29.5569 5.68826 29.5569 5.68959L28.3929 4.25679L27.6713 5.94027C27.6686 5.94565 27.4865 6.33965 27.1601 6.53269C27.0616 6.03811 26.8202 5.48183 26.3036 4.94979C25.3298 3.94722 24.1442 3.79843 23.5238 3.79843C23.2364 3.79843 23.0315 3.82929 22.9815 3.83731L21.5762 4.11205C21.657 3.79975 21.8297 3.25696 22.1453 2.76775L22.9209 1.56678L20.9692 1.78793L20.3474 0.475807L19.1443 1.09238L18.0316 0L16.9214 1.09238L15.7143 0.475807L15.0938 1.78793L13.1436 1.56678L13.9204 2.76775C14.236 3.25696 14.4087 3.79843 14.4883 4.11073L13.1475 3.84806L13.1017 3.83995C13.0342 3.82929 12.8306 3.79843 12.542 3.79843C11.9215 3.79843 10.736 3.94855 9.76478 4.94979C9.24684 5.48051 9.00544 6.03811 8.90564 6.53269C8.58198 6.34239 8.40118 5.95367 8.40118 5.95367L7.67824 4.26084L6.49542 5.70299C6.35103 5.88932 5.63758 6.8744 5.83177 8.11287C5.85204 8.2362 5.88439 8.35687 5.91948 8.47613C5.69558 8.40507 5.43388 8.3528 5.14124 8.3528C4.47222 8.3528 3.8545 8.62087 3.3541 9.12753C2.66075 9.8312 2.0619 9.91027 2.06736 9.91027C2.06736 9.91027 1.43474 10.0229 0.455541 10.0054L1.11778 11.4731C1.48604 12.2866 2.40584 12.8536 3.3541 12.8536C3.42559 12.8536 3.49434 12.8442 3.5645 12.8375C2.64462 13.5023 1.69372 13.5291 1.57904 13.5305L0.000976562 13.4795L0.478457 14.9673C0.718563 15.7339 1.52104 17.0045 3.05873 17.1412C2.89143 17.8382 2.52052 18.6183 1.70588 18.9547L0.53108 19.4359L1.17172 20.5443C1.5332 21.1421 2.3816 21.8417 3.59006 21.8417C3.85177 21.8404 4.10395 21.8149 4.34679 21.764C4.40884 22.0374 4.48703 22.3108 4.57879 22.5816C4.93886 23.6458 4.62868 24.3883 4.62462 24.3963L4.04463 25.604L5.33948 25.9431C5.3557 25.9485 5.7468 26.0543 6.23644 26.0543C6.45901 26.0543 6.67071 26.0315 6.87038 25.9846C7.02138 25.9498 7.16578 25.9029 7.30464 25.8466C7.47191 26.1455 7.67558 26.4176 7.91298 26.6615C8.74251 27.5073 9.91731 27.9361 11.4063 27.9361H11.4117L12.4746 27.9227L10.2787 28.8288L11.9458 29.629C12.5514 29.9225 13.2703 30.2696 14.0014 30.535L13.7936 31.1007L14.3682 31.3607C14.4194 31.3834 15.5241 31.8753 17.3612 31.9799C17.3612 31.9799 17.805 32 18.049 32C18.2932 32 18.7315 31.9785 18.7315 31.9785C20.5565 31.8713 21.653 31.3847 21.7043 31.3607L22.2802 31.0993L22.0698 30.5323C22.8224 30.2589 23.5669 29.8983 24.1469 29.6169L25.783 28.8275L23.5938 27.92L24.6608 27.9334C26.1512 27.9334 27.3274 27.5046 28.1554 26.6575C28.3915 26.4149 28.5952 26.1427 28.7638 25.8439C28.9028 25.9002 29.0484 25.9471 29.1994 25.982C29.3977 26.0289 29.6095 26.0516 29.832 26.0516C30.3135 26.0516 30.7088 25.9457 30.7195 25.9431L32.0198 25.6013L31.4532 24.4165C31.4398 24.3857 31.1296 23.6445 31.4897 22.5789C31.5814 22.3069 31.6582 22.0335 31.7203 21.7613C31.9645 21.8123 32.2194 21.8391 32.4824 21.8391C34.0213 21.8391 34.7591 20.7627 34.9021 20.5296L35.536 19.4331L34.3612 18.9534C33.5452 18.6169 33.1757 17.8355 33.0098 17.1399C34.5258 17.0113 35.3404 15.7406 35.5886 14.9686ZM14.5907 4.62409L14.5746 4.62805L14.5881 4.61069L14.5907 4.62409Z" fill="white"/>
<path d="M18.0336 4.55859C16.79 4.55991 15.858 4.96468 15.6543 5.44049L18.0336 6.37332L20.4128 5.44049C20.2105 4.96468 19.2785 4.55991 18.0336 4.55859Z" fill="white"/>
<path d="M18.0567 29.2525H18.0539H18.0337H18.0107H18.0094C17.2554 29.2579 16.2182 29.1037 15.7178 28.959L15.1162 30.5767C15.5128 30.7175 16.8562 30.9855 18.0337 30.9855C19.2085 30.9855 20.5532 30.7162 20.9484 30.5767L20.3481 28.959C19.8465 29.1051 18.8105 29.2579 18.0567 29.2525Z" fill="white"/>
<path d="M22.6097 27.6455C22.1619 27.8975 21.1624 28.2754 20.5811 28.451L21.0693 29.7873C21.9689 29.5433 22.7107 29.2579 23.3245 28.9523L22.3115 28.6172L22.6097 27.6455Z" fill="white"/>
<path d="M13.459 27.6455L13.7584 28.6172L12.7441 28.9523C13.3565 29.2579 14.1023 29.5433 14.9979 29.7873L15.4862 28.451C14.9075 28.2754 13.9067 27.8962 13.459 27.6455Z" fill="white"/>
<path d="M18.0312 3.0118C18.9686 3.0118 19.8885 3.23428 20.5952 3.62565C20.66 3.40987 20.7504 3.14851 20.8731 2.87509L20.6061 2.90726L20.3256 2.93671L20.2068 2.68337L19.8494 1.93282L19.1979 2.27059L18.9444 2.39929L18.742 2.20087L18.034 1.50391L17.3272 2.20087L17.1248 2.39929L16.8713 2.27059L16.2158 1.93282L15.8624 2.68337L15.741 2.93671L15.4604 2.90726L15.1934 2.87509C15.3162 3.14984 15.4052 3.40987 15.4712 3.62565C16.1794 3.23428 17.0965 3.0118 18.0312 3.0118Z" fill="white"/>
<path d="M32.3445 11.6856C32.4659 11.7272 32.5899 11.746 32.7127 11.746C33.2427 11.746 33.7553 11.4055 33.932 11.0155C33.932 11.0155 32.9595 10.9565 31.9142 9.90174C31.5811 9.55987 31.2291 9.45801 30.9269 9.45801C30.4575 9.45801 30.1055 9.70461 30.1055 9.70461C31.368 10.3721 31.6255 11.4443 32.3445 11.6856Z" fill="white"/>
<path d="M3.35275 11.746C3.47545 11.746 3.59956 11.7272 3.71829 11.6856C4.43985 11.4443 4.69881 10.3721 5.96132 9.70461C5.96132 9.70461 5.60785 9.45801 5.14121 9.45801C4.83773 9.45801 4.48568 9.55987 4.15117 9.90174C3.10727 10.9565 2.13477 11.0155 2.13477 11.0155C2.30876 11.4055 2.82265 11.746 3.35275 11.746Z" fill="white"/>
<path d="M32.6876 16.0443C32.7092 16.0456 32.728 16.0456 32.751 16.0456C34.0741 16.0456 34.5233 14.6369 34.5233 14.6369H34.4976C34.2549 14.6369 32.287 14.5806 30.8964 12.8235C29.9806 11.6681 29.2306 10.6521 27.7482 10.2528L27.6026 10.2273L27.5702 10.0799C27.5298 9.8546 27.6849 9.6442 28.037 9.4164C30.0817 8.08546 28.6938 6.38858 28.6938 6.38858C28.6938 6.38858 28.1098 7.7464 26.8028 7.7464C26.7718 7.7464 26.738 7.74506 26.7057 7.74506C26.5574 7.73693 26.4144 7.73153 26.27 7.7008L26.0286 7.65393C26.0286 7.65393 26.4009 6.64729 25.5026 5.72247C24.8254 5.02419 24.0014 4.90625 23.5252 4.90625C23.2851 4.90625 23.1327 4.93701 23.1327 4.93701C23.5846 5.52414 23.911 6.49718 23.389 7.0976C22.9386 7.6136 21.8379 7.63913 21.8379 8.4084C21.8379 8.73413 22.1441 9.1148 22.6944 9.45653C24.3494 10.4926 25.9922 11.8665 26.6746 13.7081C27.5284 16.0054 26.5668 17.5293 25.1938 18.4032C25.1938 18.4032 25.624 18.7972 26.2485 18.8468C26.3752 18.8589 26.4994 18.8643 26.6154 18.8643C27.9331 18.8643 28.6142 18.2503 28.6142 18.2503C28.6142 18.2503 28.5022 19.0989 27.8157 19.8869C27.1832 20.6147 26.3523 21.0423 25.0858 21.061C25.0858 21.061 25.0453 21.6454 25.6064 22.1507C25.9652 22.4697 26.7947 22.5742 26.7947 22.5742C26.7947 22.5742 25.2422 22.8865 25.071 25.1651C24.9779 26.3995 24.6609 26.8283 24.6609 26.8283H24.6893C28.2918 26.8283 28.1988 23.7577 28.1988 23.7577C28.1988 23.7577 28.4496 24.6664 29.4545 24.9037C29.5758 24.9359 29.7054 24.9479 29.8294 24.9479C30.1532 24.9479 30.4337 24.8729 30.4337 24.8729C30.4337 24.8729 29.9077 23.7698 30.4296 22.2271C30.8626 20.9471 30.7925 19.9982 30.7925 19.9982C30.7925 19.9982 31.278 20.7273 32.4812 20.734H32.4933C33.4955 20.734 33.9324 19.9794 33.9324 19.9794C31.5303 18.9889 31.7677 15.7909 31.7677 15.7909C31.7677 15.7909 32.0793 16.0214 32.6876 16.0443ZM31.9646 19.3843C30.988 18.9058 30.3703 17.6352 30.2206 17.1768C30.0587 19.6965 28.8206 21.4457 27.3733 23.1291C26.622 24.0017 26.3604 24.8501 26.3604 24.8501C26.3604 24.8501 26.5047 23.8891 27.1548 23.1063C28.505 21.4939 29.7877 19.4875 29.8834 17.1674C29.9495 15.5483 29.53 14.2348 28.8759 13.1532C29.2414 14.2804 29.1902 15.6609 27.9479 16.949C27.9479 16.949 30.4202 14.0042 26.9633 10.9859C25.5794 9.83726 24.0661 9.1282 23.2866 8.6256C26.1028 9.53833 27.4772 8.53306 27.4772 8.53306C26.5775 9.3078 25.4136 9.2944 24.6919 9.18313C24.8875 9.27833 25.0912 9.37746 25.311 9.49413C27.6849 10.7755 29.8187 12.8837 30.1828 15.8043V15.7815C30.7358 18.6484 31.9646 19.3843 31.9646 19.3843Z" fill="white"/>
<path d="M9.27052 22.5742C9.27052 22.5742 10.1001 22.471 10.4589 22.1507C11.0185 21.6454 10.9795 21.061 10.9795 21.061C9.71166 21.0436 8.88213 20.6147 8.24553 19.8883C7.56433 19.1001 7.45106 18.2517 7.45106 18.2517C7.45106 18.2517 8.13212 18.8656 9.44859 18.8656C9.56732 18.8656 9.69006 18.8602 9.81679 18.8481C10.4413 18.7986 10.8729 18.4045 10.8729 18.4045C9.49979 17.5307 8.53686 16.0054 9.38926 13.7081C10.0731 11.8678 11.7145 10.4926 13.3696 9.45653C13.9199 9.1148 14.226 8.73553 14.226 8.4084C14.226 7.63913 13.1267 7.6136 12.6762 7.0976C12.1543 6.49718 12.4821 5.52274 12.9325 4.93701C12.9325 4.93701 12.7828 4.90625 12.5413 4.90625C12.0666 4.90625 11.2425 5.02419 10.5654 5.72247C9.66439 6.64729 10.0381 7.65393 10.0381 7.65393L9.79659 7.7008C9.65232 7.73153 9.50793 7.73693 9.36092 7.74506C9.32726 7.74506 9.29752 7.7464 9.26519 7.7464C7.95552 7.7464 7.37419 6.3899 7.37419 6.3899C7.37419 6.3899 5.98627 8.0868 8.02966 9.41766C8.38173 9.64553 8.53552 9.85606 8.49506 10.0811L8.46259 10.2286L8.31426 10.2541C6.83466 10.6535 6.08341 11.6695 5.16758 12.8247C3.77965 14.5793 1.81445 14.6369 1.56906 14.6369H1.54199C1.54199 14.6369 1.99119 16.0456 3.31433 16.0456C3.33593 16.0456 3.35479 16.0456 3.37771 16.0443C3.98599 16.0227 4.29891 15.7909 4.29891 15.7909C4.29891 15.7909 4.53364 18.9876 2.13415 19.9794C2.13415 19.9794 2.57118 20.734 3.5733 20.734H3.58546C4.78987 20.7273 5.27415 19.9982 5.27415 19.9982C5.27415 19.9982 5.20398 20.9471 5.63562 22.2271C6.15753 23.7698 5.63422 24.8729 5.63422 24.8729C5.63422 24.8729 5.91479 24.9479 6.23713 24.9479C6.36256 24.9479 6.49073 24.9359 6.61078 24.9037C7.61419 24.6664 7.86646 23.7577 7.86646 23.7577C7.86646 23.7577 7.77473 26.8283 11.3774 26.8283H11.4029C11.4029 26.8283 11.0874 26.3995 10.9957 25.1651C10.8231 22.8865 9.27052 22.5742 9.27052 22.5742ZM8.69199 23.1291C7.24473 21.4457 6.00786 19.6965 5.84462 17.1768C5.69495 17.6339 5.07987 18.9058 4.10341 19.3843C4.10341 19.3843 5.33073 18.6484 5.88243 15.7815V15.8043C6.24797 12.8851 8.38039 10.7755 10.7555 9.49413C10.9727 9.3762 11.1791 9.277 11.3733 9.18313C10.6517 9.2944 9.48772 9.3078 8.58806 8.53306C8.58806 8.53306 9.96246 9.53833 12.7774 8.6256C11.9979 9.1282 10.4858 9.83726 9.10193 10.9859C5.64365 14.0042 8.11732 16.949 8.11732 16.949C6.87379 15.6596 6.82393 14.2804 7.18939 13.1532C6.53391 14.2361 6.11575 15.5483 6.18319 17.1674C6.27759 19.4875 7.56026 21.4939 8.90772 23.1063C9.55926 23.8877 9.70626 24.8501 9.70626 24.8501C9.70626 24.8501 9.44179 24.0017 8.69199 23.1291Z" fill="white"/>
<path d="M15.3683 11.3469C15.4275 11.41 15.4855 11.4782 15.5409 11.5466C15.5544 11.5627 15.5665 11.5775 15.5799 11.5963C15.6313 11.6646 15.6839 11.737 15.7338 11.8106C15.7445 11.8254 15.7554 11.8428 15.7675 11.8603C15.8282 11.9514 15.8849 12.0452 15.9415 12.1417C16.4607 13.033 17.293 13.5652 18.0307 13.5665C18.7699 13.5652 19.5994 13.033 20.1214 12.1417C20.1794 12.0426 20.2374 11.946 20.298 11.8562C20.3075 11.8428 20.317 11.8308 20.325 11.8174C20.3763 11.741 20.4303 11.6659 20.4869 11.5936C20.499 11.5775 20.5098 11.5641 20.5206 11.5507C20.5786 11.4796 20.6379 11.41 20.6987 11.3456C20.7094 11.3348 20.7175 11.3255 20.7269 11.3175C20.9913 11.048 21.3069 10.843 21.7196 10.729L21.5362 10.6232H21.5255L20.7943 10.201L20.0431 9.77344L18.0361 10.859L18.0307 10.855L18.0267 10.859L16.0183 9.77344L15.2685 10.1996L14.5361 10.6218H14.5279L14.3418 10.7277C14.7559 10.8416 15.0701 11.044 15.3359 11.3134C15.3479 11.3242 15.3561 11.3362 15.3683 11.3469ZM17.2187 11.2598H18.0685H18.9169V11.8388C18.7173 11.5963 18.3289 11.6458 18.3289 11.6458V12.4808C18.3289 12.4808 18.3437 12.891 18.4879 13.0693H18.0685H17.6477C17.7947 12.8924 17.8082 12.4808 17.8082 12.4808V11.6458C17.8082 11.6458 17.4211 11.5963 17.2187 11.8388V11.2598Z" fill="white"/>
<path d="M17.8581 10.137V6.74739L15.6865 6.01562L16.2597 9.30072L17.8581 10.137ZM17.3914 7.57973V8.12386L17.2862 8.07566C17.2808 8.07159 17.1271 8.03679 16.8573 7.82499C16.4122 7.48193 16.4041 7.16559 16.4041 7.16559L17.3914 7.57973Z" fill="white"/>
<path d="M19.8067 9.30072L20.3772 6.01562L18.207 6.74739V10.137L19.8067 9.30072ZM18.6738 7.57973L19.661 7.16686C19.661 7.16686 19.653 7.48326 19.2065 7.82639C18.9381 8.03813 18.783 8.07293 18.7776 8.07699L18.6724 8.12519V7.57973H18.6738Z" fill="white"/>
<path d="M14.7874 17.9952C14.9992 18.0717 15.2555 18.0878 15.3863 18.0878C15.3917 18.0717 15.3984 18.0515 15.4052 18.0274C15.4173 17.9885 15.4281 17.9511 15.4363 17.9081C15.4727 17.7205 15.4861 17.5073 15.4888 17.3706C15.3997 17.3157 15.2743 17.2179 15.2043 17.0718C15.1233 16.9029 15.0087 16.8252 14.84 16.8252C14.6215 16.8252 14.3869 16.9552 14.287 17.0168C14.2075 17.4846 14.5541 17.9095 14.7874 17.9952Z" fill="white"/>
<path d="M19.5905 16.1963C19.1873 16.632 18.3982 17.3906 18.3591 17.4295L18.3119 17.4777L15.818 17.4388C15.8166 17.6841 15.7761 17.8932 15.7371 18.046C15.7303 18.0714 15.7236 18.0982 15.7168 18.1251L18.6841 18.6545C18.993 18.44 19.8427 17.8235 20.1719 17.5822C19.9317 17.2338 19.9088 16.8209 19.9627 16.5301C19.8063 16.4296 19.6863 16.317 19.5905 16.1963Z" fill="white"/>
<path d="M19.9295 13.216C19.3548 13.7829 18.8032 13.992 18.311 14.0402C18.2219 14.0496 18.1316 14.055 18.0398 14.055H18.033H18.0276C17.936 14.055 17.8442 14.0496 17.7552 14.0402C17.6689 14.0322 17.5786 14.0188 17.4882 13.9987C17.4558 14.126 17.4153 14.3927 17.5313 14.6447C17.6352 14.8739 17.847 15.0441 18.1558 15.1568L18.2596 15.1969L18.261 15.3082C18.261 15.3416 18.2853 16.0628 19.077 16.2624C19.2065 16.1298 19.3238 16.0105 19.4102 15.9114C19.2483 15.5334 19.3332 15.1473 19.568 14.9583C19.5572 14.9985 19.4547 15.9448 20.2182 16.296L20.3436 16.355L20.3058 16.4876C20.2936 16.5278 20.0387 17.4433 20.9626 17.7837L21.1258 17.8454L21.053 18.0036C21.0368 18.0384 20.674 18.8694 21.5278 19.3412H23.3796V17.8802C22.7215 17.7998 22.4422 17.2744 22.3708 16.9018C22.0646 16.8496 21.8272 16.7182 21.6653 16.5038C21.2768 15.9958 21.6114 15.5306 21.6154 15.5052C21.6141 15.5092 21.6154 16.0051 21.923 16.3107C22.0754 16.4582 22.2562 16.5721 22.5299 16.5976L22.6648 16.6096L22.677 16.7464C22.6796 16.7758 22.7538 17.446 23.381 17.5518L23.3796 14.5683C23.3796 14.1059 23.5159 13.6408 23.6791 13.2119H19.9295V13.216Z" fill="white"/>
<path d="M14.9464 14.5833L14.8965 16.4837L15.1136 16.5159L15.645 14.6931L15.3753 14.1328L14.9464 14.5833Z" fill="white"/>
<path d="M20.8042 23.2994C20.8205 23.2994 20.8393 23.3021 20.8568 23.3061C21.1873 23.3999 21.2709 24.5847 21.8508 24.6907C21.9075 24.7027 21.9601 24.7054 22.006 24.7054C22.1732 24.7054 22.2731 24.6343 22.3809 24.5084C22.3809 24.5084 22.0897 24.0527 21.8711 23.7457C21.5811 23.3437 21.3559 22.8571 20.8164 22.8571C20.8042 22.8571 20.7881 22.8571 20.7746 22.8584C20.5965 22.8679 20.4873 22.9536 20.4873 22.9536C20.2687 22.8169 20.0651 22.77 19.8802 22.77C19.5418 22.77 19.2788 22.9241 19.1479 22.9241H19.1425L17.9367 22.8061C17.7479 22.7888 17.5995 22.5998 17.5456 22.526C17.5321 22.5059 17.5253 22.4939 17.5253 22.4939C17.5253 22.4617 17.5253 22.4282 17.5226 22.3987C17.4822 21.4189 16.7188 20.9995 16.4476 20.9927C16.4476 20.9927 16.48 20.8064 16.4058 20.7353L16.1401 21.0557L15.2674 20.6201L15.8892 21.3426L15.3618 21.9309C15.2958 21.9979 15.3038 22.0891 15.3309 22.1267L15.5588 22.3264L15.8474 22.1521C15.8622 22.1413 15.8879 22.1387 15.9203 22.1387C15.9999 22.1387 16.1199 22.1588 16.2278 22.1588C16.3451 22.1588 16.4476 22.1333 16.4598 22.0234C16.4234 22.3867 16.0848 23.0179 16.3074 23.5139L16.472 23.8878L15.4064 23.735L14.9073 24.5727C14.7536 24.8515 14.7293 25.1531 14.8777 25.3166L15.0638 25.5484C15.0638 25.5484 15.3254 25.2723 15.3848 25.0914L15.2998 24.9989C15.2283 24.9212 15.2324 24.8515 15.2756 24.767L15.5885 24.251L16.8468 24.5459L16.913 24.4333C16.9979 24.2925 17.1207 24.2497 17.2556 24.2497C17.3108 24.2497 17.3675 24.2564 17.4269 24.2657C17.6602 24.3113 18.0446 24.373 18.429 24.373C18.8512 24.373 19.2693 24.2979 19.4918 24.0499C19.9477 24.7215 20.8716 24.8287 20.7988 25.1691L20.556 26.3192C20.7166 26.3125 20.8716 26.3017 21.0186 26.2816L21.2493 25.0847C21.275 24.9547 21.2993 24.7791 21.2993 24.7791C21.2102 24.6893 20.9944 24.499 20.873 24.2685C20.7098 23.9575 20.7989 23.7953 20.6465 23.3905C20.6518 23.3932 20.6977 23.2994 20.8042 23.2994ZM16.097 21.6187C16.0349 21.6173 15.9904 21.5651 15.993 21.5033C15.9985 21.4444 16.0485 21.3975 16.1091 21.4029C16.1711 21.4055 16.2156 21.4591 16.213 21.5181C16.2075 21.5771 16.1563 21.6227 16.097 21.6187Z" fill="white"/>
<path d="M14.3794 24.3875C14.3794 24.3875 14.7961 24.2173 14.8339 24.0953L14.7786 23.9573C14.7395 23.8675 14.7449 23.7696 14.8204 23.716L15.2709 23.4064L16.0235 23.5498C16.0235 23.5498 15.8873 23.3809 15.9008 23.1545L15.1833 23.0029L14.5061 23.4131C14.2161 23.6289 14.1945 23.9814 14.2903 24.1905L14.3794 24.3875Z" fill="white"/>
<path d="M19.6982 26.3364C19.8331 26.331 19.9814 26.3282 20.1447 26.3282C20.1447 26.3282 20.5318 25.2038 20.5533 25.1676C20.3362 25.0724 19.8857 24.8352 19.7117 24.7266C19.8264 24.8969 20.1056 25.0926 20.0503 25.2426L19.6982 26.3364Z" fill="white"/>
<path d="M23.3821 19.667H12.6821V23.6665C12.6821 25.3017 13.8732 26.3256 15.6306 26.3256C17.0995 26.3256 17.4865 26.3819 18.0328 26.9208C18.4091 26.5481 18.7207 26.4087 19.36 26.3565L19.3748 26.2949L19.712 25.2588C19.6931 25.236 19.1415 24.6127 19.1415 24.6127C18.923 24.6851 18.7396 24.6971 18.4307 24.6971C18.1137 24.6971 17.7563 24.661 17.3692 24.5887C17.3301 24.5792 17.2937 24.5765 17.2572 24.5765C17.21 24.5765 17.206 24.5805 17.1939 24.6033L17.1264 24.7133L17.0037 24.9143L16.7731 24.8621L15.7466 24.6221L15.6063 24.8526L15.6279 24.8768L15.7533 25.0135L15.6981 25.1917C15.6225 25.4249 15.377 25.6971 15.3029 25.7721L15.0465 26.0455L14.8133 25.752L14.6379 25.5335C14.4531 25.3285 14.41 25.0135 14.5138 24.6837C14.5111 24.6865 14.507 24.6878 14.5031 24.6878L14.2131 24.8071L14.0821 24.5256L13.9905 24.3259C13.8327 23.9747 13.8906 23.4615 14.3156 23.1518L15.1424 22.6881L15.9287 22.8422C15.9476 22.7671 15.9759 22.4991 15.9988 22.4307C15.984 22.4293 15.9692 22.4254 15.9543 22.4254L15.5011 22.5929L15.0641 22.2927C15.0641 22.2927 14.8928 22.1291 15.0479 21.9656L15.4714 21.3289L14.3991 19.9913L16.0473 20.6641L16.1567 20.5287L16.3791 20.2648L16.6314 20.5033C16.7029 20.5717 16.7433 20.6561 16.7635 20.7406C17.2181 20.9161 18.0314 21.4348 18.1029 22.2779L17.848 22.3798V22.3865C17.906 22.4548 17.9545 22.4829 17.9693 22.4857L19.1455 22.6009C19.1752 22.5956 19.213 22.5822 19.2548 22.5701C19.4005 22.5205 19.6203 22.4495 19.8806 22.4495C20.0924 22.4495 20.2973 22.4977 20.4943 22.5889C20.5671 22.5621 20.6562 22.5419 20.7587 22.5352L20.8153 22.5339C21.4452 22.5339 21.7581 23.0017 22.0091 23.3743C22.0508 23.4386 22.0926 23.5003 22.1358 23.5606C22.3556 23.8689 22.6429 24.3206 22.6551 24.3393L22.7845 24.5403L22.6253 24.7239C22.5027 24.8647 22.3192 25.0295 22.0036 25.0295C21.9389 25.0295 21.8674 25.0229 21.7905 25.0081C21.7231 24.9961 21.6624 24.9759 21.6031 24.9518C21.5936 25.0135 21.5815 25.0872 21.5693 25.1502L21.3629 26.2197C22.5971 25.9182 23.3807 24.9921 23.3807 23.6678L23.3821 19.667Z" fill="#FFDD2D"/>
<path d="M12.6844 19.3438H21.005C20.5896 18.9176 20.595 18.3775 20.7016 18.0263C20.5802 17.9686 20.4804 17.8989 20.3914 17.8239C20.0663 18.0624 19.0736 18.7809 18.8146 18.9604L18.7594 18.998L15.4939 18.411H15.4278C15.3496 18.411 15.235 18.4083 15.1095 18.3935C15.0744 18.5396 14.9477 18.6402 14.802 18.6402C14.7858 18.6402 14.7669 18.6388 14.7494 18.6348C14.6644 18.62 14.5903 18.5771 14.5404 18.5062C14.4891 18.4364 14.4689 18.3533 14.4837 18.2676L14.4958 18.1978C14.1586 17.962 13.8484 17.4352 13.986 16.8803L13.9994 16.8214L14.0467 16.7878C14.0534 16.7825 14.11 16.745 14.1937 16.6967L13.9563 16.6605C13.8673 16.6444 13.808 16.5626 13.8215 16.4756C13.8363 16.3871 13.9199 16.3241 14.0076 16.3415L14.5727 16.43L14.624 14.4516L15.4656 13.567L15.9903 14.6648L15.4359 16.568L15.935 16.6458C16.0226 16.6592 16.0834 16.741 16.0699 16.8307C16.0564 16.9098 15.989 16.9648 15.9094 16.9648C15.9012 16.9648 15.8918 16.9648 15.8837 16.9634L15.4777 16.8978C15.4832 16.9098 15.4912 16.9165 15.4966 16.93C15.5398 17.0184 15.6356 17.0827 15.6922 17.1095L18.1821 17.1484C18.2872 17.0465 18.549 16.7918 18.8174 16.5224C18.205 16.292 17.9824 15.7665 17.9446 15.418C17.6021 15.2732 17.366 15.0562 17.2352 14.7733C17.076 14.4236 17.1327 14.0737 17.1745 13.9035C16.8427 13.7828 16.4934 13.5631 16.1373 13.2119H12.3877C12.5482 13.6408 12.6844 14.1059 12.6844 14.5683V19.3438Z" fill="#FFDD2D"/>
<path d="M16.1104 21.4018C16.0497 21.3964 15.9985 21.4433 15.9944 21.5023C15.9903 21.5639 16.0362 21.6161 16.0983 21.6175C16.1575 21.6229 16.2102 21.5773 16.2155 21.517C16.2155 21.458 16.1725 21.4031 16.1104 21.4018Z" fill="black"/>
<path d="M23.3695 28.6551L22.7531 28.4205L22.923 27.7879L23.1105 27.0977C23.1105 27.0977 22.018 27.686 20.479 28.1283C20.042 28.2529 19.7116 28.3093 19.7116 28.3093V28.7784C19.7116 28.7784 18.8888 28.9205 18.0566 28.9205H18.0471H18.035H18.0188H18.0094C17.1772 28.9205 16.3544 28.7784 16.3544 28.7784V28.3093C16.3544 28.3093 16.0226 28.2529 15.587 28.1283C14.048 27.686 12.9568 27.0977 12.9568 27.0977L13.1416 27.7879L13.3156 28.4205L12.6978 28.6551L12.0127 28.9097C12.799 29.2864 13.8874 29.8359 14.8843 30.1067L14.6496 30.7447C14.6496 30.7447 15.9134 31.317 18.0188 31.3223V31.3237H18.0256H18.035H18.0432H18.0485V31.3223C20.1567 31.317 21.4191 30.7447 21.4191 30.7447L21.183 30.1067C22.1798 29.8359 23.271 29.2864 24.0533 28.9097L23.3695 28.6551ZM12.7437 28.9527L13.758 28.6175L13.4586 27.6458C13.905 27.8978 14.9072 28.2758 15.4871 28.4514L14.9976 29.7877C14.1019 29.5423 13.356 29.2569 12.7437 28.9527ZM18.035 30.9872C16.8575 30.9872 15.5128 30.7179 15.1176 30.5784L15.7191 28.9607C16.2182 29.1054 17.2568 29.2596 18.0107 29.2542H18.0121H18.035H18.0552H18.058C18.812 29.2596 19.8478 29.1054 20.3496 28.9607L20.9497 30.5784C20.5546 30.7192 19.2112 30.9872 18.035 30.9872ZM21.0698 29.7877L20.5816 28.4514C21.1628 28.2758 22.1622 27.8978 22.6101 27.6458L22.312 28.6175L23.325 28.9527C22.7112 29.2569 21.9694 29.5423 21.0698 29.7877Z" fill="black"/>
<path d="M18.0336 3.40258C19.288 3.40258 20.2914 3.81536 20.8458 4.25635C20.8458 4.25635 21.0103 3.27124 21.5728 2.40134L20.5625 2.51531L20.0339 1.39877L19.0182 1.91883L18.0336 0.951172L17.0517 1.91883L16.0347 1.39877L15.5073 2.51531L14.4971 2.40134C15.0595 3.27124 15.2241 4.25635 15.2241 4.25635C15.7797 3.81536 16.7805 3.40258 18.0336 3.40258ZM15.4614 2.90667L15.742 2.93611L15.8634 2.68287L16.2167 1.93223L16.8723 2.26868L17.1259 2.39737L17.3282 2.19896L18.0349 1.50199L18.7431 2.19896L18.9454 2.39737L19.1989 2.26868L19.8505 1.93223L20.2079 2.68287L20.3265 2.93611L20.6071 2.90667L20.8741 2.8745C20.7514 3.14925 20.661 3.40928 20.5962 3.62505C19.8895 3.23369 18.9696 3.01121 18.0323 3.01121C17.0989 3.01121 16.1803 3.23369 15.4709 3.62505C15.4049 3.40928 15.3158 3.14793 15.193 2.8745L15.4614 2.90667Z" fill="black"/>
<path d="M32.7489 16.4751C34.3716 16.4751 34.9138 14.8346 34.9366 14.7648L35.1174 14.1872L34.5091 14.2059H34.5064C34.292 14.2059 32.5021 14.159 31.2329 12.556L31.1128 12.4072C30.2834 11.3591 29.497 10.3632 28.0916 9.90885C28.132 9.87272 28.19 9.82712 28.2696 9.77618C29.0155 9.28832 29.4498 8.69592 29.559 8.00838C29.7182 6.97365 29.0546 6.1493 29.025 6.1158L28.5731 5.56092L28.2912 6.21902C28.2724 6.26053 27.7975 7.31405 26.7994 7.31405H26.7252C26.6565 7.30998 26.5917 7.30732 26.527 7.30198C26.5621 6.83152 26.4757 6.10372 25.8122 5.42157C25.015 4.59988 24.0358 4.47656 23.5233 4.47656C23.2494 4.47656 23.0674 4.51015 23.0484 4.51279L22.366 4.64686L22.7868 5.19768C23.1173 5.62254 23.4167 6.40668 23.062 6.81678C22.9487 6.94685 22.7154 7.05272 22.4914 7.15858C22.0315 7.36905 21.4043 7.66118 21.4043 8.40645C21.4043 8.88892 21.7806 9.39285 22.4631 9.82178C24.4836 11.0844 25.7298 12.4018 26.268 13.856C27.1002 16.0931 26.0144 17.3691 24.9597 18.0406L24.4863 18.3434L24.9004 18.7214C24.9556 18.7697 25.4628 19.2134 26.2114 19.2777C26.353 19.287 26.4892 19.2952 26.616 19.2952C27.0962 19.2952 27.5049 19.22 27.8366 19.1196C27.7449 19.279 27.633 19.4412 27.4914 19.6047C26.8885 20.299 26.1466 20.6153 25.0798 20.6314L24.6832 20.6381L24.6522 21.0334C24.6481 21.1126 24.6185 21.8457 25.3171 22.469C25.4237 22.5655 25.5532 22.6446 25.688 22.7102C25.2146 23.1338 24.7331 23.8709 24.6401 25.1348C24.5618 26.1897 24.3082 26.5797 24.3056 26.5838L23.8672 27.2486L24.659 27.2592C25.9673 27.2592 26.9694 26.9 27.664 26.1897C28.074 25.7688 28.3088 25.2944 28.4477 24.8735C28.6756 25.0665 28.9697 25.2354 29.3527 25.3252C29.4984 25.3586 29.6576 25.3774 29.8288 25.3774C30.1984 25.3774 30.5073 25.2997 30.5424 25.2916L31.0482 25.1577L30.8242 24.6886C30.808 24.651 30.3859 23.71 30.8404 22.3671C31.036 21.7868 31.1358 21.2667 31.1843 20.8619C31.5026 21.0268 31.9289 21.1634 32.4805 21.1649C33.7322 21.1649 34.2838 20.236 34.3095 20.1971L34.5563 19.771L34.0991 19.5833C32.6074 18.968 32.2769 17.3155 32.2108 16.4201C32.3456 16.4456 32.4994 16.4698 32.6734 16.4751H32.7489ZM33.9318 19.9786C33.9318 19.9786 33.4948 20.7332 32.4926 20.7332H32.4805C31.2774 20.7265 30.7918 19.9974 30.7918 19.9974C30.7918 19.9974 30.862 20.9464 30.4277 22.2264C29.9057 23.769 30.4318 24.8722 30.4318 24.8722C30.4318 24.8722 30.1512 24.9472 29.8275 24.9472C29.7034 24.9472 29.5739 24.9351 29.4526 24.9029C28.4477 24.6657 28.1968 23.757 28.1968 23.757C28.1968 23.757 28.2898 26.8276 24.6872 26.8276H24.659C24.659 26.8276 24.9759 26.3988 25.0703 25.1644C25.2416 22.8858 26.7941 22.5735 26.7941 22.5735C26.7941 22.5735 25.9659 22.4703 25.6071 22.15C25.046 21.6446 25.0851 21.0603 25.0851 21.0603C26.353 21.0429 27.1826 20.614 27.8151 19.8862C28.5003 19.098 28.6136 18.2496 28.6136 18.2496C28.6136 18.2496 27.9324 18.8635 26.6147 18.8635C26.4987 18.8635 26.3746 18.8581 26.2478 18.8461C25.6246 18.7965 25.193 18.4024 25.193 18.4024C26.5647 17.5286 27.5278 16.0033 26.674 13.706C25.9902 11.8658 24.3474 10.4906 22.6938 9.45458C22.1434 9.11272 21.8372 8.73345 21.8372 8.40645C21.8372 7.63712 22.9379 7.61292 23.3898 7.09565C23.9103 6.49508 23.5839 5.52073 23.1321 4.93501C23.1321 4.93501 23.2845 4.90416 23.5246 4.90416C24.0007 4.90416 24.8248 5.02342 25.5019 5.72038C26.4016 6.6452 26.0279 7.65178 26.0279 7.65178L26.2694 7.69872C26.4138 7.72958 26.5567 7.73492 26.705 7.74165C26.7374 7.74165 26.7698 7.74298 26.8021 7.74298C28.1091 7.74298 28.6932 6.38517 28.6932 6.38517C28.6932 6.38517 30.0824 8.08338 28.0376 9.41298C27.6856 9.64078 27.5304 9.85132 27.571 10.0764L27.6034 10.2239L27.749 10.2494C29.2313 10.6487 29.9812 11.6647 30.897 12.82C32.2876 14.5772 34.2556 14.6335 34.4983 14.6335H34.524C34.524 14.6335 34.0748 16.0422 32.7516 16.0422C32.73 16.0422 32.7112 16.0422 32.6882 16.0408C32.08 16.0194 31.7684 15.7875 31.7684 15.7875C31.7684 15.7875 31.5297 18.9868 33.9318 19.9786Z" fill="black"/>
<path d="M29.8991 10.0863C30.5046 10.4065 30.8567 10.8355 31.1655 11.2162C31.469 11.5875 31.7577 11.9452 32.2081 12.094C32.3686 12.149 32.5385 12.1745 32.7112 12.1745C33.3883 12.1745 34.0681 11.7629 34.3257 11.1933L34.5847 10.6223L33.9575 10.5849C33.9278 10.5835 33.1213 10.5111 32.223 9.59834C31.8534 9.22448 31.4069 9.02734 30.9254 9.02734C30.3374 9.02734 29.9017 9.31954 29.8531 9.34908L29.2759 9.75254L29.8991 10.0863ZM30.9268 9.45901C31.2289 9.45901 31.5809 9.56081 31.9141 9.90261C32.9593 10.9575 33.9319 11.0164 33.9319 11.0164C33.7552 11.4051 33.2427 11.7469 32.7125 11.7469C32.5899 11.7469 32.4671 11.7281 32.3443 11.6866C31.6255 11.4453 31.3678 10.3731 30.104 9.70561C30.104 9.70561 30.4575 9.45901 30.9268 9.45901Z" fill="black"/>
<path d="M30.1825 15.781V15.8025C29.8183 12.8833 27.6845 10.7749 25.3107 9.49218C25.0909 9.37558 24.8885 9.27645 24.6916 9.18125C25.4145 9.29245 26.5785 9.30585 27.4768 8.53125C27.4768 8.53125 26.1024 9.53645 23.2861 8.62372C24.0658 9.12632 25.5805 9.83538 26.9629 10.984C30.4199 14.0023 27.9462 16.9471 27.9462 16.9471C29.1885 15.659 29.2397 14.2785 28.8742 13.1513C29.5283 14.2329 29.9465 15.5464 29.8817 17.1655C29.786 19.4856 28.5033 21.492 27.1531 23.1045C26.5043 23.8872 26.3587 24.8482 26.3587 24.8482C26.3587 24.8482 26.6203 23.9997 27.3716 23.1272C28.8189 21.4438 30.0557 19.6947 30.2175 17.1749C30.3673 17.632 30.9837 18.9039 31.9615 19.3823C31.9642 19.3838 30.7355 18.6479 30.1825 15.781Z" fill="black"/>
<path d="M11.7592 26.5818C11.7579 26.5778 11.507 26.1878 11.4261 25.1329C11.3317 23.869 10.8515 23.1318 10.3767 22.7083C10.5143 22.644 10.6411 22.5649 10.7477 22.467C11.445 21.8438 11.4153 21.1106 11.4112 21.0315L11.3843 20.6361L10.985 20.6294C9.92085 20.612 9.17759 20.2957 8.57472 19.6028C8.43445 19.4392 8.32119 19.2771 8.22945 19.1176C8.56119 19.2181 8.96719 19.2931 9.44872 19.2931C9.57825 19.2931 9.71179 19.2851 9.85339 19.2758C10.6019 19.2114 11.1091 18.7691 11.1657 18.7195L11.5798 18.3415L11.1064 18.0386C10.0476 17.3658 8.96585 16.0898 9.79672 13.8541C10.3349 12.3999 11.5798 11.0824 13.603 9.81983C14.2855 9.3909 14.6591 8.88696 14.6591 8.4045C14.6591 7.65923 14.0333 7.3657 13.5733 7.15663C13.3494 7.05076 13.1161 6.9449 13.0029 6.81483C12.6467 6.40604 12.9475 5.62058 13.2766 5.19572L13.7001 4.64482L13.0149 4.51084C12.9947 4.5081 12.8153 4.47461 12.5402 4.47461C12.0276 4.47461 11.0511 4.59792 10.2526 5.41952C9.58765 6.10309 9.50005 6.8309 9.53372 7.30003C9.46899 7.30536 9.40425 7.30803 9.33679 7.3121H9.26399C8.26319 7.3121 7.78979 6.25858 7.77092 6.21706L7.48892 5.55897L7.03305 6.11384C7.00745 6.14734 6.34118 6.97296 6.50302 8.00643C6.61091 8.69396 7.04519 9.28636 7.79105 9.77423C7.87199 9.82516 7.92865 9.87076 7.96912 9.9069C6.56507 10.3613 5.78005 11.3585 4.95052 12.4066L4.83047 12.5554C3.56267 14.1584 1.76875 14.2053 1.55429 14.2053L0.943359 14.1865L1.12943 14.7642C1.15103 14.834 1.69189 16.4745 3.31578 16.4745L3.39405 16.4718C3.56532 16.4664 3.71913 16.4436 3.85673 16.4168C3.78921 17.3108 3.45875 18.9634 1.96567 19.58L1.50978 19.7676L1.75667 20.1939C1.78091 20.2328 2.33393 21.1615 3.58824 21.1615C4.13588 21.1602 4.56207 21.0235 4.88177 20.8586C4.93033 21.2634 5.03011 21.7835 5.22571 22.3638C5.68027 23.7068 5.25673 24.6477 5.24051 24.6852L5.01663 25.1543L5.52381 25.2884C5.55749 25.2964 5.86908 25.3742 6.23726 25.3742C6.40993 25.3742 6.56913 25.3554 6.71212 25.3219C7.09652 25.2321 7.39319 25.0632 7.61839 24.8702C7.75599 25.291 7.99205 25.7655 8.40079 26.1864C9.09665 26.8968 10.0975 27.256 11.4059 27.256L12.1989 27.2452L11.7592 26.5818ZM11.3761 26.827C7.77352 26.827 7.86532 23.7564 7.86532 23.7564C7.86532 23.7564 7.61445 24.6651 6.60959 24.9023C6.48953 24.9345 6.36137 24.9466 6.23594 24.9466C5.91227 24.9466 5.63303 24.8716 5.63303 24.8716C5.63303 24.8716 6.15635 23.7684 5.63435 22.2258C5.20279 20.9458 5.27295 19.9968 5.27295 19.9968C5.27295 19.9968 4.78869 20.7259 3.58427 20.7326H3.57211C2.56999 20.7326 2.13297 19.978 2.13297 19.978C4.53377 18.9875 4.29772 15.7895 4.29772 15.7895C4.29772 15.7895 3.98621 16.0201 3.37651 16.0428C3.35492 16.0443 3.33473 16.0443 3.31314 16.0443C1.98858 16.0443 1.54081 14.6356 1.54081 14.6356H1.56778C1.81194 14.6356 3.77713 14.5793 5.16771 12.8221C6.08353 11.6668 6.83479 10.6522 8.31439 10.2514L8.46272 10.2259L8.49519 10.0785C8.53565 9.8533 8.38185 9.6429 8.02985 9.41503C5.98508 8.08403 7.37432 6.38727 7.37432 6.38727C7.37432 6.38727 7.95565 7.74363 9.26532 7.74363C9.29765 7.74363 9.32739 7.7423 9.36105 7.7423C9.50805 7.7343 9.65379 7.7289 9.79672 7.6981L10.0382 7.65116C10.0382 7.65116 9.66452 6.64457 10.5655 5.71984C11.2427 5.02146 12.0667 4.90352 12.5415 4.90352C12.7829 4.90352 12.9327 4.93438 12.9327 4.93438C12.4822 5.52142 12.1558 6.49446 12.6763 7.09496C13.1269 7.61096 14.2261 7.63643 14.2261 8.40576C14.2261 8.7315 13.92 9.1121 13.3697 9.4539C11.7147 10.49 10.0719 11.8652 9.38939 13.7054C8.53698 16.0026 9.49865 17.5266 10.8731 18.4018C10.8731 18.4018 10.4415 18.7959 9.81699 18.8455C9.69019 18.8575 9.56745 18.8629 9.44872 18.8629C8.13232 18.8629 7.45119 18.249 7.45119 18.249C7.45119 18.249 7.56445 19.0974 8.24565 19.8856C8.88225 20.6134 9.71179 21.0423 10.9797 21.0597C10.9797 21.0597 11.0201 21.644 10.459 22.1494C10.0989 22.4684 9.27065 22.5729 9.27065 22.5729C9.27065 22.5729 10.8245 22.8852 10.9945 25.1638C11.0875 26.3982 11.4018 26.827 11.4018 26.827H11.3761Z" fill="black"/>
<path d="M3.35321 12.175C3.52721 12.175 3.69715 12.1496 3.85758 12.0946C4.31082 11.9458 4.59808 11.588 4.90156 11.2167C5.21184 10.8361 5.56116 10.4072 6.16671 10.0869L6.7899 9.7545L6.21122 9.35103C6.16266 9.32016 5.72836 9.0293 5.14167 9.0293C4.65882 9.0293 4.21104 9.22503 3.84277 9.6003C2.94448 10.5118 2.13928 10.5854 2.10957 10.5868L1.48242 10.623L1.74007 11.1953C1.99895 11.7622 2.6774 12.175 3.35321 12.175ZM4.15163 9.90316C4.48614 9.56143 4.83819 9.45956 5.14167 9.45956C5.60831 9.45956 5.96168 9.70616 5.96168 9.70616C4.69927 10.375 4.4403 11.4459 3.71866 11.6872C3.60002 11.7288 3.47591 11.7476 3.35321 11.7476C2.8231 11.7476 2.31054 11.407 2.13522 11.017C2.13522 11.0157 3.10632 10.9567 4.15163 9.90316Z" fill="black"/>
<path d="M6.18373 17.1675C6.11631 15.5484 6.53447 14.2349 7.18992 13.1533C6.82439 14.2805 6.87432 15.661 8.11792 16.9491C8.11792 16.9491 5.6442 14.0044 9.10245 10.9859C10.4864 9.83734 11.9997 9.12827 12.778 8.62567C9.96305 9.5384 8.58859 8.5332 8.58859 8.5332C9.48685 9.30794 10.6509 9.29447 11.3739 9.18187C11.1783 9.27707 10.9733 9.37627 10.7561 9.49287C8.37959 10.7755 6.24711 12.8839 5.88157 15.8031V15.7803C5.32997 18.6471 4.10254 19.383 4.10254 19.383C5.0791 18.9045 5.69418 17.6339 5.84385 17.1755C6.00709 19.6953 7.24385 21.4445 8.69112 23.1278C9.44239 24.0004 9.70679 24.8488 9.70679 24.8488C9.70679 24.8488 9.55979 23.8878 8.90832 23.1051C7.56085 21.4954 6.27814 19.4875 6.18373 17.1675Z" fill="black"/>
<path d="M17.2197 11.2607V11.8397C17.4207 11.5971 17.8092 11.6467 17.8092 11.6467V12.4817C17.8092 12.4817 17.7957 12.8918 17.6487 13.0701H18.0695H18.4889C18.3447 12.8933 18.3297 12.4817 18.3297 12.4817V11.6467C18.3297 11.6467 18.7182 11.5971 18.9179 11.8397V11.2607H18.0695H17.2197Z" fill="black"/>
<path d="M16.8574 7.82639C17.1258 8.03813 17.281 8.07306 17.2864 8.07699L17.3916 8.12533V7.57979L16.4043 7.16699C16.4043 7.16833 16.4137 7.48326 16.8574 7.82639Z" fill="black"/>
<path d="M19.2066 7.82639C19.653 7.48326 19.6611 7.16699 19.6611 7.16699L18.6738 7.57979V8.12533L18.7776 8.07699C18.7844 8.07306 18.9382 8.03813 19.2066 7.82639Z" fill="black"/>
<path d="M20.9855 5.60608C20.9855 4.7791 19.5841 4.03516 18.037 4.03516H18.0357H18.0317H18.0276C16.4805 4.03516 15.0791 4.7791 15.0791 5.60608L15.1102 5.80978L15.7279 9.33345L15.1075 9.69132L13.5024 10.6228H13.5079C13.5079 10.6228 13.1464 10.8064 12.9791 10.9203C12.3681 11.3426 12.2387 11.9578 12.5933 12.2125C12.6811 11.7112 13.0803 11.1857 13.8275 11.1857C14.3657 11.1857 14.7757 11.4619 15.1075 11.876C15.1925 11.9806 15.2734 12.0918 15.3489 12.2125C15.4419 12.3639 15.535 12.4966 15.6281 12.6252H11.4941C11.7976 13.2324 12.0862 13.8758 12.0862 14.574V23.6667C12.0862 25.8675 13.7897 26.9184 15.6321 26.9184C17.0565 26.9184 17.2481 26.854 18.0344 27.6314C18.8167 26.8527 19.0082 26.9184 20.4339 26.9184C22.2776 26.9184 23.9785 25.8675 23.9785 23.6667V14.574C23.9785 13.8758 24.2671 13.2324 24.5719 12.6252H20.4365C20.5283 12.498 20.6213 12.3639 20.7143 12.2125C20.7913 12.0918 20.8708 11.9806 20.9545 11.876C21.2889 11.4605 21.6976 11.1857 22.2358 11.1857C22.983 11.1857 23.3809 11.7098 23.4699 12.2125C23.8247 11.9578 23.6965 11.3426 23.0815 10.9203C22.9169 10.8064 22.5554 10.6228 22.5554 10.6228H22.5609L20.9558 9.69132L20.3381 9.33345L20.9558 5.80978L20.9855 5.60608ZM15.6874 6.01622L17.859 6.74798V10.1376L16.2607 9.29998L15.6874 6.01622ZM16.1366 13.2163C16.4927 13.5688 16.8421 13.7874 17.1738 13.9079C17.1306 14.0781 17.0741 14.4293 17.2345 14.7792C17.3653 15.0606 17.6027 15.2777 17.9439 15.4225C17.9817 15.771 18.2029 16.295 18.8167 16.5269C18.5483 16.7964 18.2865 17.0496 18.18 17.1528L15.6915 17.1139C15.6349 17.0858 15.5391 17.0228 15.496 16.933C15.4905 16.921 15.4825 16.9143 15.4785 16.9009L15.8843 16.9666C15.8939 16.9679 15.9019 16.9679 15.91 16.9679C15.9883 16.9679 16.057 16.9143 16.0705 16.8338C16.084 16.7441 16.0233 16.6623 15.9357 16.6489L15.4366 16.5711L15.9909 14.6692L15.4663 13.5714L14.6247 14.4561L14.5733 16.4344L14.0083 16.3459C13.9205 16.3286 13.8369 16.3929 13.8221 16.48C13.8086 16.5671 13.8679 16.6489 13.9569 16.6649L14.1943 16.7012C14.1094 16.7494 14.0541 16.7869 14.0473 16.7923L13.9987 16.8258L13.9853 16.8848C13.8477 17.4396 14.1593 17.9664 14.4952 18.2022L14.483 18.272C14.4695 18.3578 14.4884 18.4408 14.5397 18.5106C14.5882 18.5816 14.6637 18.6245 14.7473 18.6393C14.7649 18.6419 14.7837 18.6432 14.8 18.6432C14.9456 18.6432 15.0725 18.5428 15.1089 18.3966C15.2343 18.4114 15.3489 18.414 15.4271 18.414H15.4933L18.7587 18.9998L18.8139 18.9636C19.0742 18.7827 20.0656 18.0642 20.3907 17.8271C20.4797 17.9035 20.5795 17.9731 20.7009 18.0307C20.5957 18.3819 20.5889 18.922 21.0057 19.3482H12.6837V14.5754C12.6837 14.113 12.5475 13.6479 12.387 13.219H16.1366V13.2163ZM20.1721 17.583C19.8417 17.8243 18.992 18.4408 18.6845 18.6553L15.7171 18.1259C15.7239 18.0991 15.7306 18.0736 15.7374 18.0469C15.7765 17.894 15.8156 17.6849 15.8183 17.4396L18.3122 17.4799L18.3594 17.4317C18.3972 17.394 19.1876 16.6355 19.5909 16.1986C19.6866 16.3178 19.8066 16.4318 19.9631 16.5322C19.9091 16.8217 19.9321 17.2346 20.1721 17.583ZM15.2046 17.0724C15.2747 17.2185 15.4015 17.3163 15.4892 17.3713C15.4865 17.508 15.473 17.7212 15.4366 17.9087C15.4285 17.9504 15.4177 17.9892 15.4055 18.0281C15.3989 18.0522 15.3921 18.0722 15.3867 18.0884C15.2559 18.0884 14.9982 18.0722 14.7878 17.9959C14.5545 17.9102 14.2065 17.4852 14.2874 17.0175C14.3886 16.9558 14.6219 16.8258 14.8405 16.8258C15.0091 16.8244 15.1237 16.9035 15.2046 17.0724ZM14.8957 16.484L14.9456 14.5848L15.3745 14.1331L15.6443 14.6934L15.1129 16.5162L14.8957 16.484ZM20.1452 26.3299C19.9833 26.3299 19.8336 26.3326 19.6987 26.338L20.0521 25.2456C20.1075 25.0942 19.8282 24.8998 19.7135 24.7297C19.8875 24.8382 20.3381 25.0754 20.5553 25.1706C20.5323 25.2054 20.1452 26.3299 20.1452 26.3299ZM21.2539 25.0889L21.0233 26.2844C20.8763 26.3044 20.7198 26.3152 20.5593 26.3219L20.8021 25.1719C20.8749 24.8302 19.951 24.7243 19.4951 24.0528C19.2725 24.302 18.8531 24.3758 18.4323 24.3758C18.0479 24.3758 17.6635 24.3142 17.4301 24.2686C17.3707 24.2592 17.3141 24.2524 17.2588 24.2524C17.1239 24.2524 17.0011 24.294 16.9162 24.436L16.8487 24.5487L15.5904 24.2538L15.2775 24.7685C15.2329 24.8516 15.2302 24.9226 15.3017 25.0004L15.3867 25.0928C15.3287 25.2751 15.0671 25.5498 15.0671 25.5498L14.8796 25.318C14.7311 25.1532 14.7555 24.8529 14.9106 24.5742L15.4096 23.7364L16.4752 23.8893L16.3093 23.514C16.0867 23.018 16.4253 22.3868 16.4617 22.0235C16.4495 22.1334 16.3483 22.1576 16.2297 22.1576C16.1218 22.1576 16.0017 22.1375 15.9221 22.1375C15.8911 22.1375 15.8641 22.1402 15.8493 22.1509L15.5607 22.3251L15.3327 22.1254C15.3057 22.0866 15.2963 21.9967 15.3637 21.9297L15.8911 21.3427L15.2681 20.6202L16.1407 21.0558L16.4063 20.7354C16.4793 20.8065 16.4482 20.9928 16.4482 20.9928C16.7207 20.9996 17.484 21.419 17.5245 22.3975C17.5272 22.427 17.5272 22.4604 17.5272 22.4926C17.5272 22.4926 17.534 22.5047 17.5475 22.5248C17.6014 22.5985 17.7497 22.7875 17.9385 22.8049L19.1444 22.9228H19.1497C19.282 22.9228 19.545 22.7688 19.8821 22.7688C20.0656 22.7688 20.2706 22.8157 20.4891 22.9524C20.4891 22.9524 20.5983 22.8666 20.7764 22.8572C20.7899 22.8559 20.8048 22.8559 20.8183 22.8559C21.3591 22.8559 21.583 23.341 21.873 23.7444C22.0915 24.0514 22.3829 24.5071 22.3829 24.5071C22.2749 24.6344 22.1751 24.7042 22.0079 24.7042C21.9621 24.7042 21.9094 24.7001 21.8527 24.6894C21.2727 24.5835 21.1892 23.3987 20.8587 23.3049C20.8412 23.2995 20.8223 23.2982 20.8061 23.2982C20.6995 23.2982 20.6524 23.392 20.6524 23.392C20.8033 23.7955 20.7157 23.9589 20.8776 24.2699C20.9989 24.5004 21.2147 24.6908 21.3037 24.7805C21.3037 24.7832 21.2795 24.9575 21.2539 25.0889ZM14.7784 23.9576L14.8337 24.0956C14.7973 24.2163 14.3792 24.3878 14.3792 24.3878L14.2887 24.1922C14.193 23.9831 14.2132 23.6306 14.5046 23.4148L15.1817 23.0047L15.8993 23.1561C15.8857 23.3826 16.0219 23.5515 16.0219 23.5515L15.2693 23.4081L14.8189 23.7176C14.7433 23.77 14.7379 23.8678 14.7784 23.9576ZM21.3672 26.2187L21.5736 25.1492C21.5843 25.0861 21.5978 25.0124 21.6073 24.9508C21.6653 24.9749 21.7273 24.995 21.7947 25.007C21.8716 25.0218 21.9431 25.0285 22.0079 25.0285C22.3235 25.0285 22.5069 24.8636 22.6297 24.723L22.7888 24.5392L22.6593 24.3382C22.6472 24.3181 22.3613 23.8678 22.1401 23.5595C22.0969 23.4993 22.055 23.4388 22.0133 23.3732C21.7624 23.0006 21.4481 22.5328 20.8183 22.5328L20.7616 22.5342C20.6577 22.5409 20.5687 22.561 20.4973 22.5878C20.2989 22.4954 20.0953 22.4484 19.8835 22.4484C19.6232 22.4484 19.4033 22.5194 19.2577 22.569C19.2159 22.5811 19.1781 22.5945 19.1485 22.5999L17.9709 22.4846C17.9561 22.4819 17.9075 22.4538 17.8495 22.384V22.3788L18.1045 22.2768C18.0329 21.4338 17.2183 20.9151 16.7638 20.7395C16.7436 20.655 16.7031 20.5707 16.6317 20.5023L16.3781 20.2637L16.1555 20.5291L16.0463 20.6644L14.3981 19.9916L15.4703 21.3293L15.0468 21.9659C14.8917 22.1294 15.063 22.2929 15.063 22.2929L15.4999 22.5918L15.9532 22.4243C15.9693 22.4243 15.9829 22.4283 15.9977 22.4296C15.9761 22.4981 15.9478 22.766 15.9289 22.8412L15.1425 22.687L14.3157 23.1507C13.8909 23.4604 13.8329 23.9737 13.9907 24.3248L14.0824 24.5246L14.2132 24.806L14.5019 24.6867C14.5059 24.6854 14.51 24.6841 14.5126 24.6814C14.4088 25.0111 14.4507 25.3247 14.6367 25.5312L14.8121 25.7509L15.0455 26.0444L15.3017 25.771C15.3773 25.696 15.6214 25.4239 15.6969 25.1906L15.7522 25.0124L15.6268 24.8757L15.6065 24.8516L15.7469 24.621L16.7732 24.861L17.0039 24.9132L17.1266 24.7122L17.1941 24.6023C17.2062 24.5796 17.2102 24.5755 17.2575 24.5755C17.2939 24.5755 17.3303 24.5796 17.3694 24.5876C17.7565 24.66 18.1139 24.6961 18.4309 24.6961C18.7384 24.6961 18.9218 24.6841 19.1417 24.6116C19.1417 24.6116 19.6933 25.2336 19.7122 25.2578L19.3751 26.2924L19.3601 26.3554C18.7209 26.4064 18.4093 26.5457 18.033 26.9197C17.4867 26.3809 17.0996 26.3246 15.6309 26.3246C13.8733 26.3246 12.6824 25.3006 12.6824 23.6654V19.6672H23.3809L23.3837 23.6654C23.3849 24.9923 22.6013 25.9172 21.3672 26.2187ZM23.6803 13.2163C23.5172 13.6452 23.3809 14.1103 23.3809 14.5727L23.3823 17.5562C22.7551 17.4517 22.6809 16.7802 22.6782 16.7508L22.6661 16.614L22.5312 16.602C22.2587 16.5765 22.078 16.4612 21.9256 16.3138C21.6181 16.0082 21.6167 15.5122 21.6181 15.5083C21.6141 15.5338 21.2795 15.9988 21.668 16.5068C21.8311 16.7212 22.0672 16.8526 22.3734 16.9048C22.4449 17.2774 22.7241 17.8029 23.3823 17.8832V19.3442H21.5317C20.6779 18.8724 21.0394 18.0415 21.0569 18.0066L21.1298 17.8484L20.9666 17.7868C20.0427 17.4463 20.2963 16.5296 20.3097 16.4908L20.3475 16.3567L20.2221 16.2977C19.4586 15.9466 19.5625 14.999 19.572 14.9601C19.3373 15.1491 19.2523 15.5351 19.4141 15.913C19.3265 16.0122 19.2092 16.1329 19.081 16.2642C18.2906 16.0645 18.2664 15.342 18.2664 15.3086L18.2649 15.1973L18.1611 15.1571C17.8523 15.0432 17.6405 14.8729 17.5366 14.6438C17.4193 14.3904 17.4611 14.125 17.4935 13.9978C17.5839 14.0178 17.6742 14.0326 17.7605 14.0392C17.8495 14.0487 17.9413 14.054 18.033 14.054H18.0384H18.0451C18.1369 14.054 18.2273 14.0487 18.3163 14.0392C18.8085 13.991 19.3602 13.7807 19.9348 13.215H23.6803V13.2163ZM20.7967 10.2006L21.5277 10.6228H21.5385L21.7219 10.7287C21.3092 10.8427 20.9936 11.0477 20.7293 11.3171C20.7198 11.3252 20.7104 11.3358 20.7009 11.3453C20.6402 11.4096 20.5795 11.4792 20.5229 11.5503C20.5121 11.5637 20.5013 11.5784 20.4891 11.5932C20.4325 11.6656 20.3799 11.7393 20.3286 11.817C20.3205 11.8304 20.3111 11.8438 20.3017 11.8559C20.2409 11.9457 20.183 12.0422 20.125 12.1414C19.6043 13.0327 18.7735 13.5648 18.0344 13.5662C17.2966 13.5648 16.4657 13.0327 15.9451 12.1414C15.8884 12.0449 15.8318 11.9511 15.7711 11.86C15.7589 11.8425 15.7481 11.825 15.7374 11.8103C15.6861 11.7366 15.6349 11.6643 15.5823 11.5959C15.5688 11.5771 15.5566 11.5624 15.5431 11.5464C15.4865 11.4779 15.4285 11.4096 15.3705 11.3466C15.3584 11.3372 15.3503 11.3252 15.3381 11.3144C15.0725 11.045 14.7581 10.8412 14.3441 10.7287L14.5302 10.6228H14.5383L15.2693 10.2006L16.0206 9.77305L18.0276 10.8587L18.0317 10.8546L18.037 10.8587L20.044 9.77305L20.7967 10.2006ZM19.8066 9.30132L18.207 10.1389V6.74798L20.3772 6.01622L19.8066 9.30132ZM18.033 6.37541L15.6537 5.44116C15.8561 4.96535 16.7894 4.56059 18.033 4.55927C19.2779 4.56059 20.2113 4.96535 20.4123 5.44116L18.033 6.37541Z" fill="black"/>
<path d="M47.4969 20.5597V15.1929H50.6647V13.24H42.0225V15.1929H45.1903V20.5597H47.4969ZM53.8946 13.24H51.5879V20.5597H53.8946V13.24ZM55.5825 13.24V20.5597H57.7047V16.5154L61.6567 20.5597H63.6251V13.24H61.5029V17.2536L57.6431 13.24H55.5825ZM68.1589 17.7918L70.8189 20.5597H73.7869L70.0809 16.746L73.6482 13.24H70.8495L68.1589 15.9926H67.5435V13.24H65.3137V20.5597H67.5435V17.7918H68.1589ZM78.3749 13.04C75.3762 13.04 73.5769 14.7316 73.5769 16.9152C73.5769 19.0988 75.3762 20.7904 78.3749 20.7904C81.3589 20.7904 83.1575 19.0988 83.1575 16.9152C83.1575 14.7316 81.3589 13.04 78.3749 13.04ZM78.3749 19.0066C76.8835 19.0066 75.9295 18.1146 75.9295 16.9152C75.9295 15.7158 76.8835 14.8392 78.3749 14.8392C79.8515 14.8392 80.8202 15.7158 80.8202 16.9152C80.8202 18.1146 79.8515 19.0066 78.3749 19.0066ZM91.6135 13.24H84.2169V20.5597H86.4462V18.007H91.2909V16.3924H86.4462V15.1006H91.6135V13.24ZM100.008 13.24H92.6109V20.5597H94.8409V18.007H99.6855V16.3924H94.8409V15.1006H100.008V13.24Z" fill="white"/>
</g>
<defs>
<clipPath id="clip0_2678_40966">
<rect width="100.067" height="32" fill="white"/>
</clipPath>
</defs>
</svg>
