<svg width="100" height="56" viewBox="0 0 100 56" fill="none" xmlns="http://www.w3.org/2000/svg">
<g clip-path="url(#clip0_2527_16015)">
<path fill-rule="evenodd" clip-rule="evenodd" d="M13.3708 17.2021C13.1141 16.7575 12.4725 16.7575 12.2158 17.2021L8.2732 24.0308C7.94418 24.6007 7.28307 24.8707 6.62503 24.8707C3.77082 24.8707 1.45703 27.1845 1.45703 30.0387C1.45703 32.8929 3.77082 35.2067 6.62503 35.2067C9.47924 35.2067 11.793 32.8929 11.793 30.0387C11.793 28.751 12.6594 27.2047 13.9471 27.2047H17.9908C18.5041 27.2047 18.825 26.649 18.5683 26.2044L13.3708 17.2021ZM14.3407 30.1231C14.8147 29.125 16.0079 28.7001 17.006 29.1741L21.0487 31.0939C22.0468 31.5678 22.4716 32.7611 21.9977 33.7592L19.9892 37.9887C19.5153 38.9867 18.322 39.4116 17.3239 38.9376L13.2812 37.0178C12.2831 36.5439 11.8583 35.3506 12.3322 34.3526L14.3407 30.1231Z" fill="url(#paint0_radial_2527_16015)"/>
</g>
<path d="M28.4151 33.227H25.1616V20.7642H28.4151V33.227Z" fill="black"/>
<path d="M38.9994 33.227H30.2345V31.3069L34.8569 26.0444H30.3945V23.6088L38.8216 23.6265V25.5466L34.1991 30.8091H38.9994V33.227Z" fill="black"/>
<path d="M45.1109 33.3337C44.1864 33.3337 43.3271 33.1618 42.533 32.8181C41.7389 32.4744 41.0959 31.9381 40.604 31.2091C40.1121 30.4802 39.8662 29.5468 39.8662 28.409C39.8662 27.3186 40.1003 26.4089 40.5685 25.68C41.0722 24.9214 41.7241 24.3703 42.5241 24.0266C43.3242 23.6769 44.1864 23.5021 45.1109 23.5021C46.0295 23.5021 46.8888 23.674 47.6888 24.0177C48.4948 24.3555 49.1526 24.9007 49.6622 25.6533C50.1363 26.3763 50.3734 27.2949 50.3734 28.409C50.3734 29.049 50.2726 29.6653 50.0711 30.258C49.8756 30.8447 49.5645 31.3691 49.1378 31.8314C48.717 32.2936 48.1748 32.661 47.511 32.9337C46.8473 33.2003 46.0472 33.3337 45.1109 33.3337ZM45.1109 30.8447C45.8221 30.8447 46.3465 30.6106 46.6843 30.1424C47.0221 29.6742 47.191 29.1083 47.191 28.4445C47.191 27.7927 47.0251 27.2326 46.6932 26.7645C46.3613 26.2963 45.8339 26.0622 45.1109 26.0622C44.6724 26.0622 44.299 26.1689 43.9909 26.3822C43.6827 26.5896 43.4486 26.8741 43.2886 27.2356C43.1286 27.5912 43.0486 27.9942 43.0486 28.4445C43.0486 29.1913 43.2412 29.7779 43.6264 30.2046C44.0116 30.6313 44.5064 30.8447 45.1109 30.8447Z" fill="black"/>
<path d="M58.1372 33.3337C56.9164 33.3337 55.9505 32.8833 55.2393 31.9825V33.227H52.0747V20.0353H55.2393V24.8533C55.9267 23.9525 56.869 23.5021 58.0661 23.5021C58.8543 23.5021 59.5921 23.6828 60.2795 24.0443C60.967 24.4058 61.5241 24.9718 61.9507 25.7422C62.3478 26.477 62.5463 27.3838 62.5463 28.4623C62.5463 29.0905 62.4634 29.6979 62.2974 30.2846C62.1374 30.8654 61.8796 31.3839 61.5241 31.8403C61.1744 32.2966 60.7211 32.661 60.164 32.9337C59.6069 33.2003 58.9313 33.3337 58.1372 33.3337ZM57.2838 30.7736C58.0068 30.7736 58.5343 30.5395 58.8661 30.0713C59.198 29.6031 59.3639 29.0431 59.3639 28.3912C59.3639 27.7393 59.195 27.1763 58.8573 26.7022C58.5195 26.2281 57.995 25.9911 57.2838 25.9911C56.5964 25.9911 56.0838 26.2281 55.746 26.7022C55.4082 27.1763 55.2393 27.7393 55.2393 28.3912C55.2393 29.1972 55.4408 29.7957 55.8438 30.1869C56.2468 30.578 56.7268 30.7736 57.2838 30.7736Z" fill="black"/>
<path d="M65.7562 22.5598C65.1991 22.5598 64.7813 22.388 64.5028 22.0442C64.2243 21.7005 64.085 21.3094 64.085 20.8709C64.085 20.3019 64.2539 19.8782 64.5917 19.5997C64.9295 19.3212 65.3177 19.1819 65.7562 19.1819C66.1947 19.1819 66.5829 19.3212 66.9207 19.5997C67.2585 19.8782 67.4274 20.3019 67.4274 20.8709C67.4274 21.3094 67.2881 21.7005 67.0096 22.0442C66.7311 22.388 66.3133 22.5598 65.7562 22.5598ZM67.3207 33.227H64.1739V23.6088H67.3207V33.227Z" fill="black"/>
<path d="M72.8939 33.387C72.3131 33.387 71.7679 33.2685 71.2583 33.0314C70.7486 32.7944 70.3397 32.4121 70.0315 31.8847C69.7234 31.3573 69.5693 30.655 69.5693 29.7779V20.0353H72.7339V29.6357C72.7339 30.2876 73.0124 30.6135 73.5695 30.6135C73.8421 30.6135 74.1443 30.5306 74.4762 30.3646L74.7429 32.9781C74.1028 33.2507 73.4865 33.387 72.8939 33.387Z" fill="black"/>
<path d="M77.4755 22.5598C76.9184 22.5598 76.5006 22.388 76.2221 22.0442C75.9436 21.7005 75.8043 21.3094 75.8043 20.8709C75.8043 20.3019 75.9732 19.8782 76.311 19.5997C76.6488 19.3212 77.037 19.1819 77.4755 19.1819C77.914 19.1819 78.3022 19.3212 78.64 19.5997C78.9778 19.8782 79.1467 20.3019 79.1467 20.8709C79.1467 21.3094 79.0074 21.7005 78.7289 22.0442C78.4504 22.388 78.0326 22.5598 77.4755 22.5598ZM79.04 33.227H75.8932V23.6088H79.04V33.227Z" fill="black"/>
<path d="M85.1288 33.3692C84.228 33.3692 83.4665 33.1174 82.8442 32.6136C82.222 32.1099 81.9109 31.3365 81.9109 30.2935V26.1689H80.5775V24.071H81.9109V21.4042H85.0577V24.071H87.5467V26.1689H85.0577V29.7957C85.0577 30.4713 85.3184 30.8091 85.8399 30.8091C86.2192 30.8091 86.6459 30.7024 87.12 30.4891L87.7245 32.7292C86.9422 33.1559 86.077 33.3692 85.1288 33.3692Z" fill="black"/>
<path d="M90.6495 36.8183C89.5828 36.8183 88.6346 36.4864 87.8049 35.8227L89.1205 33.6359C89.5116 33.9915 89.9383 34.1693 90.4006 34.1693C90.9339 34.1693 91.3191 33.9263 91.5562 33.4403L91.7873 32.9959L87.8049 23.6088H91.0584L93.3518 29.8668L95.3964 23.6088H98.5432L94.4185 34.1693C93.7192 35.9353 92.4629 36.8183 90.6495 36.8183Z" fill="black"/>
<defs>
<radialGradient id="paint0_radial_2527_16015" cx="0" cy="0" r="1" gradientUnits="userSpaceOnUse" gradientTransform="translate(13.2988 28.6669) rotate(90) scale(10.4646 11.175)">
<stop stop-color="#552BFF"/>
<stop offset="1" stop-color="#CCFF00" stop-opacity="0.98"/>
</radialGradient>
<clipPath id="clip0_2527_16015">
<rect width="20.7345" height="22.2629" fill="white" transform="translate(1.45703 16.8687)"/>
</clipPath>
</defs>
</svg>
