<svg xmlns="http://www.w3.org/2000/svg" width="32" height="33" viewBox="0 0 32 33" fill="none">
<path fill-rule="evenodd" clip-rule="evenodd" d="M11.6095 7.55707L10.6667 6.61426L9.72386 7.55707L4.39052 12.8904C3.86983 13.4111 3.86983 14.2553 4.39052 14.776C4.91122 15.2967 5.75544 15.2967 6.27614 14.776L9.33333 11.7188V24.4999C9.33333 25.2363 9.93029 25.8332 10.6667 25.8332C11.403 25.8332 12 25.2363 12 24.4999V11.7188L15.0572 14.776C15.5779 15.2967 16.4221 15.2967 16.9428 14.776C17.4635 14.2553 17.4635 13.4111 16.9428 12.8904L11.6095 7.55707ZM21.3333 26.3855L20.392 25.4442C20.391 25.4432 20.39 25.4422 20.389 25.4412L15.0572 20.1094C14.5365 19.5887 14.5365 18.7444 15.0572 18.2237C15.5779 17.703 16.4221 17.703 16.9428 18.2237L20 21.2809L20 8.49988C20 7.7635 20.597 7.16654 21.3333 7.16654C22.0697 7.16654 22.6667 7.7635 22.6667 8.49988V21.2809L25.7239 18.2237C26.2446 17.703 27.0888 17.703 27.6095 18.2237C28.1302 18.7444 28.1302 19.5887 27.6095 20.1094L22.2768 25.442C22.2764 25.4425 22.2759 25.4429 22.2755 25.4434L21.3333 26.3855Z" fill="#00B505"/>
</svg>