<svg xmlns="http://www.w3.org/2000/svg" width="24" height="24" viewBox="0 0 24 24" fill="none">
<path d="M14.782 2.21971L19.277 6.71371C19.404 6.8407 19.4812 7.00905 19.4946 7.18816C19.508 7.36727 19.4567 7.54524 19.35 7.68971L19.278 7.77471L14.783 12.2787C14.6492 12.412 14.47 12.4899 14.2812 12.4968C14.0924 12.5037 13.908 12.4391 13.7648 12.316C13.6216 12.1928 13.5301 12.0202 13.5086 11.8325C13.4871 11.6449 13.5373 11.456 13.649 11.3037L13.721 11.2197L16.938 7.99671H5.242C5.06108 7.99649 4.88634 7.93089 4.74998 7.81199C4.61363 7.69309 4.52484 7.52891 4.5 7.34971L4.493 7.24871C4.493 7.06747 4.55864 6.89237 4.67776 6.75578C4.79689 6.61919 4.96144 6.53036 5.141 6.50571L5.243 6.49871L16.941 6.49771L13.723 3.28071C13.596 3.15372 13.5188 2.98537 13.5054 2.80626C13.492 2.62715 13.5433 2.44918 13.65 2.30471L13.723 2.22071C13.85 2.09369 14.0183 2.01646 14.1974 2.00307C14.3766 1.98967 14.5545 2.041 14.699 2.14771L14.783 2.22071L19.278 6.71471L14.783 2.22071L14.782 2.21971ZM19.5 16.6497L19.507 16.7497C19.5072 16.9311 19.4417 17.1065 19.3226 17.2433C19.2034 17.3801 19.0387 17.469 18.859 17.4937L18.757 17.5007L7.061 17.4997L10.282 20.7197C10.409 20.8467 10.4862 21.0151 10.4996 21.1942C10.513 21.3733 10.4617 21.5512 10.355 21.6957L10.283 21.7797C10.1559 21.907 9.9874 21.9844 9.80806 21.9978C9.62873 22.0112 9.45055 21.9597 9.306 21.8527L9.222 21.7807L4.722 17.2837C4.59498 17.1567 4.51775 16.9884 4.50435 16.8093C4.49096 16.6301 4.54228 16.4522 4.649 16.3077L4.722 16.2237L9.222 11.7197C9.356 11.5868 9.53521 11.5092 9.72386 11.5026C9.91251 11.4959 10.0967 11.5607 10.2397 11.6839C10.3828 11.8071 10.4741 11.9797 10.4954 12.1672C10.5168 12.3548 10.4666 12.5435 10.355 12.6957L10.283 12.7797L7.065 15.9997H18.757C18.9385 15.9998 19.1139 16.0657 19.2505 16.1852C19.3871 16.3048 19.4758 16.4698 19.5 16.6497L19.507 16.7497L19.5 16.6497Z" fill="white"/>
</svg>