<svg width="24" height="24" viewBox="0 0 24 24" fill="none" xmlns="http://www.w3.org/2000/svg">
<path fill-rule="evenodd" clip-rule="evenodd" d="M14.1465 3.76689C12.9694 2.56143 11.0307 2.56143 9.85363 3.76689L9.2654 4.36931C9.07433 4.56498 8.81147 4.67386 8.53801 4.6706L7.69609 4.66057C6.01138 4.6405 4.6405 6.01138 4.66057 7.69609L4.6706 8.53801C4.67386 8.81147 4.56498 9.07433 4.36931 9.2654L3.76689 9.85363C2.56143 11.0307 2.56143 12.9694 3.76689 14.1465L4.36931 14.7347C4.56498 14.9258 4.67386 15.1887 4.6706 15.4621L4.66057 16.304C4.6405 17.9888 6.01138 19.3596 7.69609 19.3396L8.53801 19.3295C8.81147 19.3263 9.07433 19.4352 9.2654 19.6308L9.85363 20.2332C11.0307 21.4387 12.9694 21.4387 14.1465 20.2332L14.7347 19.6308C14.9258 19.4352 15.1887 19.3263 15.4621 19.3295L16.304 19.3396C17.9888 19.3596 19.3596 17.9888 19.3396 16.304L19.3295 15.4621C19.3263 15.1887 19.4352 14.9258 19.6308 14.7347L20.2332 14.1465C21.4387 12.9694 21.4387 11.0307 20.2332 9.85363L19.6308 9.2654C19.4352 9.07433 19.3263 8.81147 19.3295 8.53801L19.3396 7.69609C19.3596 6.01138 17.9888 4.6405 16.304 4.66057L15.4621 4.6706C15.1887 4.67386 14.9258 4.56498 14.7347 4.36931L14.1465 3.76689ZM11.2846 5.16416C11.6769 4.76234 12.3232 4.76234 12.7155 5.16416L13.3038 5.76658C13.877 6.35359 14.6656 6.68023 15.4859 6.67046L16.3279 6.66043C16.8894 6.65374 17.3464 7.1107 17.3397 7.67227L17.3297 8.51419C17.3199 9.33457 17.6465 10.1232 18.2336 10.6964L18.836 11.2846C19.2378 11.6769 19.2378 12.3232 18.836 12.7155L18.2336 13.3038C17.6465 13.877 17.3199 14.6656 17.3297 15.4859L17.3397 16.3279C17.3464 16.8894 16.8894 17.3464 16.3279 17.3397L15.4859 17.3297C14.6656 17.3199 13.877 17.6465 13.3038 18.2336L12.7155 18.836C12.3232 19.2378 11.6769 19.2378 11.2846 18.836L10.6964 18.2336C10.1232 17.6465 9.33457 17.3199 8.51419 17.3297L7.67227 17.3397C7.1107 17.3464 6.65374 16.8894 6.66043 16.3279L6.67046 15.4859C6.68023 14.6656 6.35358 13.877 5.76657 13.3038L5.16416 12.7155C4.76234 12.3232 4.76234 11.6769 5.16416 11.2846L5.76658 10.6964C6.35359 10.1232 6.68023 9.33457 6.67046 8.51419L6.66043 7.67227C6.65374 7.1107 7.1107 6.65374 7.67227 6.66043L8.51419 6.67046C9.33457 6.68023 10.1232 6.35358 10.6964 5.76657L11.2846 5.16416ZM15.7072 10.7072C16.0977 10.3166 16.0977 9.68348 15.7072 9.29296C15.3166 8.90244 14.6835 8.90244 14.293 9.29296L11.0001 12.5859L9.70717 11.293C9.31665 10.9024 8.68348 10.9024 8.29296 11.293C7.90244 11.6835 7.90244 12.3166 8.29296 12.7072L10.293 14.7072L11.0001 15.4143L11.7072 14.7072L15.7072 10.7072Z" fill="#7630F7"/>
</svg>
