<svg width="24" height="24" viewBox="0 0 24 24" fill="none" xmlns="http://www.w3.org/2000/svg">
<g id="Filled/wallet">
<g id="Group">
<path id="Vector" fill-rule="evenodd" clip-rule="evenodd" d="M21.1001 8.004C21.0451 8 20.9841 8 20.9201 8H18.3951C16.3271 8 14.5581 9.628 14.5581 11.75C14.5581 13.872 16.3281 15.5 18.3951 15.5H20.9201C20.9841 15.5 21.0451 15.5 21.1021 15.496C21.5271 15.4704 21.9283 15.2911 22.231 14.9916C22.5336 14.6921 22.7171 14.2927 22.7471 13.868C22.7511 13.808 22.7511 13.743 22.7511 13.683V9.817C22.7511 9.757 22.7511 9.692 22.7471 9.632C22.7171 9.20726 22.5336 8.80793 22.231 8.50842C21.9283 8.2089 21.5271 8.02963 21.1021 8.004H21.1001ZM18.1721 12.75C18.7041 12.75 19.1351 12.302 19.1351 11.75C19.1351 11.198 18.7041 10.75 18.1721 10.75C17.6391 10.75 17.2081 11.198 17.2081 11.75C17.2081 12.302 17.6391 12.75 18.1721 12.75Z" fill="black"/>
<path id="Vector_2" fill-rule="evenodd" clip-rule="evenodd" d="M20.918 17C20.9526 16.9986 20.987 17.0054 21.0184 17.0198C21.0499 17.0342 21.0775 17.0558 21.099 17.0829C21.1206 17.11 21.1354 17.1418 21.1424 17.1757C21.1493 17.2096 21.1481 17.2446 21.139 17.278C20.939 17.99 20.62 18.598 20.109 19.108C19.36 19.858 18.411 20.189 17.239 20.347C16.099 20.5 14.644 20.5 12.806 20.5H10.694C8.856 20.5 7.4 20.5 6.261 20.347C5.089 20.189 4.14 19.857 3.391 19.109C2.643 18.36 2.311 17.411 2.153 16.239C2 15.099 2 13.644 2 11.806V11.694C2 9.856 2 8.4 2.153 7.26C2.311 6.088 2.643 5.139 3.391 4.39C4.14 3.642 5.089 3.31 6.261 3.152C7.401 3 8.856 3 10.694 3H12.806C14.644 3 16.1 3 17.239 3.153C18.411 3.311 19.36 3.643 20.109 4.391C20.62 4.903 20.939 5.51 21.139 6.222C21.1481 6.25537 21.1493 6.29042 21.1424 6.32432C21.1354 6.35822 21.1206 6.39 21.099 6.41708C21.0775 6.44417 21.0499 6.46579 21.0184 6.4802C20.987 6.4946 20.9526 6.50139 20.918 6.5H18.394C15.557 6.5 13.057 8.74 13.057 11.75C13.057 14.76 15.557 17 18.394 17H20.918ZM7 15.5C6.80109 15.5 6.61032 15.421 6.46967 15.2803C6.32902 15.1397 6.25 14.9489 6.25 14.75V8.75C6.25 8.55109 6.32902 8.36032 6.46967 8.21967C6.61032 8.07902 6.80109 8 7 8C7.19891 8 7.38968 8.07902 7.53033 8.21967C7.67098 8.36032 7.75 8.55109 7.75 8.75V14.75C7.75 14.9489 7.67098 15.1397 7.53033 15.2803C7.38968 15.421 7.19891 15.5 7 15.5Z" fill="black"/>
</g>
</g>
</svg>
